<svg width="1200" height="1920" viewBox="0 0 1200 1920" fill="none" xmlns="http://www.w3.org/2000/svg">
<g clip-path="url(#clip0_48_936)">
<rect width="1200" height="1920" fill="white"/>
<path d="M1028.08 -22.7091C1036.53 -22.7091 1045.02 -23.366 1053.43 -22.5378C1062.33 -21.6524 1071.23 -22.1379 1080.08 -21.0241C1085.35 -20.3387 1090.62 -20.5672 1095.85 -19.7961C1107.84 -17.9969 1119.91 -18.2254 1131.86 -15.8264C1132.45 -15.7122 1133.07 -15.6836 1133.66 -15.7122C1141.81 -16.1977 1149.93 -14.4842 1158.04 -13.7987C1166.11 -13.0848 1174.21 -11.8853 1182.29 -10.286C1188.4 -9.05797 1194.61 -9.11509 1200.64 -6.85894C1207.69 -4.20297 1213.61 1.56591 1218.34 10.6476C1225.92 25.1555 1229.32 42.6336 1232.51 60.1973C1235.55 76.8185 1236.91 94.011 1238.25 111.203C1239.8 131.109 1240.38 151.072 1239.75 171.034C1239.45 180.83 1239.36 190.711 1238.36 200.507C1237.7 206.904 1237.8 213.444 1237.41 219.927C1236.32 237.862 1235 255.74 1233.78 273.646C1232.35 294.665 1230.01 315.485 1228.87 336.561C1228.12 350.669 1227.06 364.749 1226.24 378.857C1225.24 396.078 1223.6 413.213 1222.92 430.434C1222.33 445.313 1221.44 460.164 1220.74 475.015C1219.01 511.827 1219.67 548.725 1218.83 585.538C1218.09 617.152 1217.86 648.738 1218.47 680.267C1219.22 719.593 1218.33 758.918 1219.35 798.158C1219.83 817.207 1219.34 836.256 1220.17 855.247C1221.61 889.232 1220.99 923.246 1220.72 957.231C1220.58 973.995 1219.68 990.816 1218.43 1007.55C1217.34 1022.12 1216.45 1036.68 1214.57 1051.05C1211.8 1072.44 1207.71 1093.06 1199.28 1110.65C1194.78 1120.05 1189.7 1128.67 1183.21 1134.72C1171.28 1145.89 1159 1145.01 1146.78 1136.55C1133.68 1127.5 1123.94 1111.82 1115.76 1093.57C1103.06 1065.27 1095.71 1033.34 1091.3 999.527C1088.24 976.166 1086.54 952.576 1086.74 928.644C1086.9 908.824 1088.4 889.375 1091.19 870.069C1094.93 844.195 1100.59 819.32 1106.11 794.36C1111.74 768.914 1117.01 743.24 1119.19 716.423C1120.96 694.575 1118.89 673.442 1110.38 655.221C1105.5 644.74 1099.55 635.915 1092.28 629.461C1079.9 618.466 1066.55 612.012 1052.83 607.214C1044.71 604.386 1036.78 600.617 1029.13 595.419C1019.11 588.622 1011 578.483 1006.48 561.948C1003.22 550.039 1002.81 537.644 1003.81 525.107C1006.03 497.462 1014.44 474.129 1024.67 452.368C1036.58 426.95 1048.98 402.104 1060.92 376.715C1067.18 363.435 1072.8 349.441 1076.72 333.877C1081.88 313.343 1079.54 295.551 1070.03 279.444C1061.73 265.364 1051.25 257.825 1040.05 252.513C1029.95 247.743 1019.57 245.059 1009.07 243.317C996.79 241.289 984.497 239.89 972.167 238.833C963.43 238.062 954.656 238.747 945.972 237.462C938.288 236.32 930.605 236.919 922.939 236.148C910.931 234.949 898.888 233.949 886.951 231.75C867.635 228.18 848.516 222.783 830.558 210.103C816.853 200.45 804.577 187.655 795.446 168.178C789.96 156.469 786.78 143.218 787.012 128.596C787.208 116.144 789.799 104.549 793.963 93.8967C799.895 78.7034 807.936 66.8515 816.96 56.5988C831.058 40.6059 846.461 28.6112 862.632 18.9012C881.019 7.87744 899.906 -0.261839 919.079 -6.51623C931.141 -10.4288 943.327 -13.456 955.549 -15.9978C965.842 -18.1682 976.17 -19.5391 986.48 -21.3097C999.238 -23.5088 1012.09 -22.909 1024.9 -22.9661C1025.95 -22.9661 1027.01 -22.9661 1028.06 -22.9661V-22.8233L1028.08 -22.7091Z" fill="#EFC2AE"/>
<rect x="434" y="984" width="100" height="100" fill="#D9D9D9"/>
<path d="M440.222 135.624C421.966 134.189 404.09 130.695 386.527 125.502C367.512 119.865 349.388 112.051 331.38 103.891C314.278 96.1439 297.045 88.6106 278.69 84.2422C270.692 82.3301 262.578 80.6157 254.366 80.3685C237.149 79.841 220.262 82.1323 203.804 87.4732C183.387 94.0833 164.686 103.908 147.321 116.452C137.558 123.508 128.191 131.024 118.89 138.64C109.078 146.701 99.5953 155.19 89.5851 163.004C77.6454 172.317 65.6728 181.614 52.051 188.488C37.918 195.626 23.1583 199.714 7.2113 197.307C-7.89469 195.016 -19.4056 187.186 -27.0081 173.916C-32.813 163.795 -36.1772 152.817 -37.6614 141.245C-38.7828 132.426 -39.0302 123.59 -38.9972 114.689C-38.9312 92.1382 -34.2972 70.6263 -25.4414 50.0046C-19.6694 36.5864 -11.5557 24.6354 -1.59503 13.8712C12.406 -1.27778 29.458 -11.3826 48.8682 -17.9598C67.223 -24.1908 86.089 -27.6525 105.334 -29.4163C117.62 -30.5372 129.923 -30.9329 142.258 -30.9988C149.201 -31.0318 156.094 -30.3724 162.988 -30.4548C183.156 -30.6856 203.16 -27.7679 223.28 -27.4547C238.485 -27.2239 253.574 -25.3447 268.73 -25.2953C278.641 -25.2623 288.503 -24.0425 298.364 -24.2568C307.468 -24.4711 316.472 -23.3501 325.526 -23.2842C341.011 -23.1688 356.48 -22.5754 371.948 -22.2292C379.023 -22.0644 386.114 -21.372 393.173 -21.6687C403.1 -22.0808 412.946 -20.4654 422.807 -20.6797C435.555 -20.9599 448.171 -18.9983 460.853 -19.0807C474.573 -19.1631 488.195 -17.218 501.866 -17.2839C513.773 -17.3499 525.581 -15.685 537.438 -15.8169C550.681 -15.9652 563.791 -14.053 576.968 -14.119C588.05 -14.1684 599.033 -12.7837 610.066 -12.8167C618.592 -12.8497 627.134 -13.0145 635.677 -13.4761C645.522 -14.0036 655.367 -14.5805 665.229 -14.8937C673.442 -15.141 681.638 -15.8498 689.834 -16.4103C695.903 -16.8224 701.955 -17.3664 708.007 -17.7125C719.848 -18.3884 731.722 -19.0148 743.529 -17.3334C752.039 -16.1301 760.4 -14.3003 767.607 -9.15723C774.137 -4.4922 777.419 1.77179 776.957 9.86554C776.875 11.3491 776.545 12.7668 775.984 14.1844C772.834 22.2781 768.217 29.2345 762.131 35.5644C754.067 43.9384 744.717 50.1529 734.278 54.818C724.004 59.4006 713.136 62.2853 702.054 64.1151C690.708 65.9778 679.246 66.9503 667.769 67.9888C651.343 69.4559 635.231 72.6044 619.598 78.1925C604.937 83.4345 591.2 90.5557 577.528 97.8417C560.938 106.677 544.562 115.908 526.983 122.733C509.98 129.327 492.417 133.415 474.26 135.112C462.931 136.167 451.618 136.629 440.255 135.689L440.222 135.624Z" fill="#EFC2AE"/>
<path d="M-237.468 1557.19C-238.001 1543.3 -238.385 1533.93 -238.702 1524.56C-239.302 1506.78 -238.885 1489.02 -238.418 1471.21C-237.601 1440.75 -234.632 1410.92 -230.061 1381.5C-225.775 1353.93 -219.169 1327.93 -211.463 1302.66C-205.191 1282.11 -197.468 1263.09 -190.028 1243.75C-184.357 1229.02 -179.103 1213.83 -173.498 1199.04C-168.177 1185.01 -162.305 1171.63 -156.451 1158.22C-151.63 1147.16 -146.309 1136.77 -140.971 1126.52C-131.88 1109.05 -122.506 1091.94 -112.147 1076.48C-102.923 1062.73 -93.5818 1049.26 -83.657 1036.99C-67.0265 1016.41 -49.512 998.511 -30.6631 984.256C-17.6524 974.433 -4.19122 966.924 9.75365 962.803C18.7444 960.149 27.9854 959.557 37.2264 960.291C47.4348 961.109 57.3096 964.327 66.9343 969.831C77.2428 975.731 86.6506 984.51 95.5079 995.265C109.92 1012.79 120.245 1035.94 128.469 1061.99C133.906 1079.19 137.626 1097.56 140.412 1116.47C142.697 1132 143.998 1147.78 144.882 1163.73C145.483 1174.43 145.666 1185.1 145.766 1195.77C145.883 1208.95 145.399 1222.22 144.749 1235.37C143.381 1263.15 140.412 1290.53 137.259 1317.82C133.323 1351.86 129.186 1385.85 125.683 1420.03C123.598 1440.27 122.18 1460.65 121.179 1481.09C120.595 1493.12 120.112 1505.28 120.879 1517.31C121.88 1533.17 123.298 1548.95 127.701 1563.52C133.389 1582.34 142.38 1593.49 154.49 1597.73C160.862 1599.96 167.284 1600.58 173.806 1599.93C185.282 1598.8 196.575 1595.86 207.867 1592.36C215.807 1589.88 223.797 1587.59 231.704 1584.94C245.298 1580.42 259.027 1578.79 272.788 1578.14C287.6 1577.46 301.762 1582.85 314.773 1595.3C324.547 1604.64 332.421 1617.77 339.71 1632C347.5 1647.24 354.239 1663.81 361.378 1679.87C369.668 1698.53 378.392 1716.59 389.301 1731.19C399.142 1744.37 410.285 1752.73 422.745 1755.63C431.452 1757.67 440.193 1757.61 448.984 1757.3C458.858 1756.96 468.683 1755.44 478.541 1755.35C493.554 1755.21 508.216 1759.27 521.477 1771.81C537.774 1787.19 548.216 1810.42 552.236 1841.53C554.621 1859.96 551.385 1875.15 543.061 1887.57C537.774 1895.47 531.469 1900.16 524.996 1904.11C512.803 1911.54 500.309 1917.04 487.549 1921.05C478.541 1923.87 469.484 1926.1 460.41 1928.3C452.353 1930.25 444.28 1930.93 436.206 1932.06C433.638 1932.42 431.236 1934.2 428.617 1934.06C418.608 1933.55 408.65 1935.67 398.659 1935.84C389.768 1936.01 380.861 1935.98 371.97 1936.01C362.662 1936.04 353.371 1936.09 344.063 1936.26C332.737 1936.49 321.395 1937.02 310.069 1937.17C301.678 1937.25 293.322 1938.92 284.965 1938.55C275.323 1938.13 265.799 1939.79 256.224 1940.61C240.561 1941.96 224.848 1941.54 209.269 1944.65C195.157 1947.44 180.945 1948.01 166.85 1950.63C153.306 1953.17 139.728 1955.32 126.183 1957.97C116.492 1959.86 106.801 1961.67 97.1092 1961.67C87.8015 1961.67 78.5272 1963.64 69.1861 1962.74C63.8317 1962.23 58.4106 1963.08 53.0061 1962.99C44.7826 1962.85 36.5925 1962.2 28.3857 1961.72C21.113 1961.3 13.8737 1960.31 6.61771 1959.52C0.846268 1958.87 -4.92517 1958.05 -10.6799 1957.04C-19.654 1955.43 -28.6281 1953.99 -37.5855 1952.24C-54.6663 1948.94 -71.3968 1943.12 -87.777 1934.29C-102.639 1926.27 -116.851 1915.88 -130.179 1902.11C-142.923 1888.92 -154.749 1873.65 -165.174 1855.67C-176.55 1836.08 -186.158 1813.98 -195.299 1791.29C-205.374 1766.22 -214.098 1740 -220.503 1711.65C-224.373 1694.61 -227.509 1677.19 -229.561 1659.18C-231.663 1640.61 -233.498 1621.98 -235.066 1603.2C-236.467 1586.38 -236.6 1569.47 -237.434 1557.16L-237.468 1557.19Z" fill="#EFC2AE"/>
<path d="M692.009 157.861C692.069 156.591 692.059 155.321 692.189 154.061C692.579 150.261 694.409 147.231 697.219 144.691C702.359 140.031 708.319 136.731 714.679 134.081C716.789 133.201 718.909 132.361 721.009 131.471C724.539 129.981 727.689 127.941 730.579 125.381C734.039 122.321 736.399 118.661 738.139 114.441C740.459 108.821 742.618 103.131 744.848 97.4707C748.878 87.2207 756.049 79.9307 766.269 75.6707C770.559 73.8807 775.049 72.6307 779.329 70.8107C789.969 66.3007 797.569 58.7707 802.139 48.1907C804.379 42.9907 806.449 37.7207 808.739 32.5407C812.239 24.6207 817.679 18.4407 825.519 14.5707C832.569 11.0907 838.819 6.5707 844.329 0.970701C846.339 -1.0793 848.639 -2.8293 851.029 -4.4393C852.869 -5.6793 854.869 -6.1493 857.049 -5.9593C859.479 -5.7493 861.079 -4.3193 861.629 -1.9493C862.039 -0.199297 862.108 1.6107 861.848 3.3507C861.358 6.5607 859.238 8.5107 856.348 9.7907C850.559 12.3607 844.849 15.1307 838.999 17.5407C829.959 21.2707 824.299 28.0107 820.869 36.9307C819.929 39.3807 819.088 41.8607 818.418 44.3907C816.768 50.6407 814.319 56.5507 811.209 62.2007C806.209 71.2807 798.578 76.9907 788.668 79.7707C783.548 81.2107 778.249 81.9207 773.199 83.6707C766.199 86.0907 760.539 90.3607 755.829 95.9607C753.659 98.5507 752.679 101.731 751.909 104.951C750.789 109.631 750.039 114.391 748.929 119.071C746.559 129.081 740.458 135.951 731.549 140.631C726.139 143.471 720.459 145.601 714.629 147.361C711.759 148.221 709.229 149.741 706.809 151.461C703.559 153.761 702.889 157.201 702.739 160.841C702.659 162.861 702.549 164.901 702.999 166.911C703.019 166.991 703.029 167.081 703.039 167.161C703.449 170.401 702.709 172.011 700.569 172.471C697.129 173.211 694.979 172.071 694.029 169.001C692.899 165.361 691.809 161.711 692.029 157.831L692.009 157.861Z" fill="#C16378"/>
<path d="M799.009 105.861C799.069 104.591 799.059 103.321 799.189 102.061C799.579 98.2607 801.409 95.2307 804.219 92.6907C809.359 88.0307 815.319 84.7307 821.679 82.0807C823.789 81.2007 825.909 80.3607 828.009 79.4707C831.539 77.9807 834.689 75.9407 837.579 73.3807C841.039 70.3207 843.399 66.6607 845.139 62.4407C847.459 56.8207 849.618 51.1307 851.848 45.4707C855.878 35.2207 863.049 27.9307 873.269 23.6707C877.559 21.8807 882.049 20.6307 886.329 18.8107C896.969 14.3007 904.569 6.77071 909.139 -3.8093C911.379 -9.0093 913.449 -14.2793 915.739 -19.4593C919.239 -27.3793 924.679 -33.5593 932.519 -37.4293C939.569 -40.9093 945.819 -45.4293 951.329 -51.0293C953.339 -53.0793 955.639 -54.8293 958.029 -56.4393C959.869 -57.6793 961.869 -58.1493 964.049 -57.9593C966.479 -57.7493 968.079 -56.3193 968.629 -53.9493C969.039 -52.1993 969.108 -50.3893 968.848 -48.6493C968.358 -45.4393 966.238 -43.4893 963.348 -42.2093C957.559 -39.6393 951.849 -36.8693 945.999 -34.4593C936.959 -30.7293 931.299 -23.9893 927.869 -15.0693C926.929 -12.6193 926.088 -10.1393 925.418 -7.6093C923.768 -1.3593 921.319 4.5507 918.209 10.2007C913.209 19.2807 905.578 24.9907 895.668 27.7707C890.548 29.2107 885.249 29.9207 880.199 31.6707C873.199 34.0907 867.539 38.3607 862.829 43.9607C860.659 46.5507 859.679 49.7307 858.909 52.9507C857.789 57.6307 857.039 62.3907 855.929 67.0707C853.559 77.0807 847.458 83.9507 838.549 88.6307C833.139 91.4707 827.459 93.6007 821.629 95.3607C818.759 96.2207 816.229 97.7407 813.809 99.4607C810.559 101.761 809.889 105.201 809.739 108.841C809.659 110.861 809.549 112.901 809.999 114.911C810.019 114.991 810.029 115.081 810.039 115.161C810.449 118.401 809.709 120.011 807.569 120.471C804.129 121.211 801.979 120.071 801.029 117.001C799.899 113.361 798.809 109.711 799.029 105.831L799.009 105.861Z" fill="#C16378"/>
<path d="M831.009 157.861C831.069 156.591 831.059 155.321 831.189 154.061C831.579 150.261 833.409 147.231 836.219 144.691C841.359 140.031 847.319 136.731 853.679 134.081C855.789 133.201 857.909 132.361 860.009 131.471C863.539 129.981 866.689 127.941 869.579 125.381C873.039 122.321 875.399 118.661 877.139 114.441C879.459 108.821 881.618 103.131 883.848 97.4707C887.878 87.2207 895.049 79.9307 905.269 75.6707C909.559 73.8807 914.049 72.6307 918.329 70.8107C928.969 66.3007 936.569 58.7707 941.139 48.1907C943.379 42.9907 945.449 37.7207 947.739 32.5407C951.239 24.6207 956.679 18.4407 964.519 14.5707C971.569 11.0907 977.819 6.5707 983.329 0.970701C985.339 -1.0793 987.639 -2.8293 990.029 -4.4393C991.869 -5.6793 993.869 -6.1493 996.049 -5.9593C998.479 -5.7493 1000.08 -4.3193 1000.63 -1.9493C1001.04 -0.199297 1001.11 1.6107 1000.85 3.3507C1000.36 6.5607 998.238 8.5107 995.348 9.7907C989.559 12.3607 983.849 15.1307 977.999 17.5407C968.959 21.2707 963.299 28.0107 959.869 36.9307C958.929 39.3807 958.088 41.8607 957.418 44.3907C955.768 50.6407 953.319 56.5507 950.209 62.2007C945.209 71.2807 937.578 76.9907 927.668 79.7707C922.548 81.2107 917.249 81.9207 912.199 83.6707C905.199 86.0907 899.539 90.3607 894.829 95.9607C892.659 98.5507 891.679 101.731 890.909 104.951C889.789 109.631 889.039 114.391 887.929 119.071C885.559 129.081 879.458 135.951 870.549 140.631C865.139 143.471 859.459 145.601 853.629 147.361C850.759 148.221 848.229 149.741 845.809 151.461C842.559 153.761 841.889 157.201 841.739 160.841C841.659 162.861 841.549 164.901 841.999 166.911C842.019 166.991 842.029 167.081 842.039 167.161C842.449 170.401 841.709 172.011 839.569 172.471C836.129 173.211 833.979 172.071 833.029 169.001C831.899 165.361 830.809 161.711 831.029 157.831L831.009 157.861Z" fill="#C16378"/>
<path d="M938.009 105.861C938.069 104.591 938.059 103.321 938.189 102.061C938.579 98.2607 940.409 95.2307 943.219 92.6907C948.359 88.0307 954.319 84.7307 960.679 82.0807C962.789 81.2007 964.909 80.3607 967.009 79.4707C970.539 77.9807 973.689 75.9407 976.579 73.3807C980.039 70.3207 982.399 66.6607 984.139 62.4407C986.459 56.8207 988.618 51.1307 990.848 45.4707C994.878 35.2207 1002.05 27.9307 1012.27 23.6707C1016.56 21.8807 1021.05 20.6307 1025.33 18.8107C1035.97 14.3007 1043.57 6.77071 1048.14 -3.8093C1050.38 -9.0093 1052.45 -14.2793 1054.74 -19.4593C1058.24 -27.3793 1063.68 -33.5593 1071.52 -37.4293C1078.57 -40.9093 1084.82 -45.4293 1090.33 -51.0293C1092.34 -53.0793 1094.64 -54.8293 1097.03 -56.4393C1098.87 -57.6793 1100.87 -58.1493 1103.05 -57.9593C1105.48 -57.7493 1107.08 -56.3193 1107.63 -53.9493C1108.04 -52.1993 1108.11 -50.3893 1107.85 -48.6493C1107.36 -45.4393 1105.24 -43.4893 1102.35 -42.2093C1096.56 -39.6393 1090.85 -36.8693 1085 -34.4593C1075.96 -30.7293 1070.3 -23.9893 1066.87 -15.0693C1065.93 -12.6193 1065.09 -10.1393 1064.42 -7.6093C1062.77 -1.3593 1060.32 4.5507 1057.21 10.2007C1052.21 19.2807 1044.58 24.9907 1034.67 27.7707C1029.55 29.2107 1024.25 29.9207 1019.2 31.6707C1012.2 34.0907 1006.54 38.3607 1001.83 43.9607C999.659 46.5507 998.679 49.7307 997.909 52.9507C996.789 57.6307 996.039 62.3907 994.929 67.0707C992.559 77.0807 986.458 83.9507 977.549 88.6307C972.139 91.4707 966.459 93.6007 960.629 95.3607C957.759 96.2207 955.229 97.7407 952.809 99.4607C949.559 101.761 948.889 105.201 948.739 108.841C948.659 110.861 948.549 112.901 948.999 114.911C949.019 114.991 949.029 115.081 949.039 115.161C949.449 118.401 948.709 120.011 946.569 120.471C943.129 121.211 940.979 120.071 940.029 117.001C938.899 113.361 937.809 109.711 938.029 105.831L938.009 105.861Z" fill="#C16378"/>
<path d="M182.799 1843.47C180.974 1847.44 177.762 1850.17 174.593 1852.95C164.011 1862.22 151.542 1867.8 138.638 1872.57C128.504 1876.33 118.103 1877.96 107.516 1878.91C97.3024 1879.82 87.4911 1877.85 77.7818 1875.35C70.2766 1873.41 62.6557 1872.44 54.9194 1871.95C50.1933 1871.67 46.2873 1873.13 42.7352 1876.54C34.5052 1884.48 27.3039 1893.06 24.3823 1904.47C22.7475 1910.85 21.81 1917.37 22.4482 1923.92C23.0884 1930.54 22.9536 1937.32 25.2887 1943.65C25.9859 1945.57 25.3408 1946.87 23.4956 1947.69C22.7312 1948.03 22.0055 1948.48 21.2276 1948.75C16.7818 1950.36 14.7181 1949.36 13.4934 1944.8C12.3276 1940.43 12.0634 1935.91 11.8176 1931.41C11.2674 1921.71 11.6961 1912.06 13.1067 1902.33C14.221 1894.62 15.5519 1886.88 15.4253 1879C15.2596 1868.47 17.1098 1857.94 16.7323 1847.38C16.5765 1842.85 18.6957 1838.57 19.9559 1834.2C25.2332 1816.02 32.819 1798.73 40.8622 1781.65C47.3721 1767.85 56.0749 1755.42 65.912 1743.74C73.2197 1735.07 79.5247 1725.6 84.8211 1715.6C87.9695 1709.68 89.9024 1703.14 92.3662 1696.85C92.9756 1695.32 93.4999 1693.76 94.2363 1691.74C96.2798 1693.93 97.2497 1696.14 97.9215 1698.51C99.6173 1704.61 100.882 1710.83 100.822 1717.24C100.756 1724.6 100.388 1731.97 100.038 1739.35C99.9545 1741.17 99.5277 1743.02 99.0023 1744.79C93.1545 1764.11 83.9852 1781.54 69.6657 1796.09C62.1053 1803.77 54.625 1811.52 47.2937 1819.44C42.3512 1824.79 38.2761 1830.82 34.7153 1837.17C33.9919 1838.47 33.3622 1839.91 32.986 1841.35C31.4152 1847.38 30.3116 1853.51 29.7767 1859.7C29.612 1861.66 29.6408 1863.64 30.638 1865.47C32.2848 1864.68 32.5711 1863.27 33.0632 1862.13C37.6337 1851.29 44.7992 1842.49 53.8346 1835.16C57.6177 1832.08 61.4009 1829 65.2594 1826.04C72.6687 1820.39 78.6366 1813.24 84.6616 1806.22C92.7009 1796.85 99.6158 1786.64 105.991 1776.07C114.963 1761.22 120.53 1745.33 120.725 1727.89C120.826 1719.69 121.917 1711.51 122.7 1703.31C123.032 1699.76 124.034 1696.43 125.719 1693.19C130.514 1703.51 133.782 1714.3 136.263 1725.26C138.555 1735.38 136.704 1745.61 133.068 1755.38C130.067 1763.46 125.779 1770.95 121.148 1778.75C123.105 1778.57 123.964 1777.38 124.918 1776.4C128.428 1772.73 131.452 1768.66 134.365 1764.53C139.929 1756.64 144.72 1748.49 147.123 1738.88C149.335 1730.11 152.65 1721.53 156.131 1713.13C160.647 1702.25 167.185 1692.69 176.383 1685.11C186.143 1677.05 197.366 1672.14 209.933 1667.63C201.747 1676.42 197.861 1685.85 196.292 1696.78C194.178 1711.45 189.748 1725.4 181.894 1738.51C171.067 1756.55 157.714 1772.16 142.042 1785.9C139.139 1788.45 135.925 1790.6 132.831 1792.93C130.429 1794.74 127.793 1796.28 125.852 1798.67C125.197 1798.79 124.441 1799.24 124.726 1799.8C125.137 1800.58 125.641 1799.71 126.069 1799.43C128.759 1799.12 131.274 1798.03 133.511 1796.68C143.406 1790.72 154.249 1789.15 165.168 1789.48C179.964 1789.91 194.818 1790.25 209.62 1792.48C209.485 1794.15 208.13 1794.26 207.231 1794.78C205.647 1795.71 204.046 1796.63 202.387 1797.44C192.714 1802.05 183.359 1807.09 175.218 1814.44C170.125 1819.04 163.788 1821.34 157.016 1822.04C150.43 1822.73 143.83 1823.07 137.251 1822.29C124.912 1820.86 112.483 1821.23 100.306 1824.07C82.9794 1828.14 69.484 1838 60.8135 1854.33C62.2281 1855.2 62.4892 1853.74 63.0999 1853.28C72.9721 1845.87 84.0449 1842.77 95.9072 1844.2C105.681 1845.36 115.383 1847.05 124.87 1849.84C133.986 1852.53 143.287 1852.57 152.743 1850.25C162.739 1847.8 172.822 1845.73 182.866 1843.49L182.829 1843.47L182.799 1843.47Z" fill="#C16378"/>
<path d="M521.655 70.2281C511.14 70.6729 500.884 69.383 490.714 66.4695C458.221 57.151 439.174 31.3304 439.002 -3.5642C438.915 -20.1775 442.298 -35.8567 449.064 -50.8687C450.766 -54.6717 452.727 -58.2968 455.873 -61.0101C475.178 -77.5789 497.393 -85.185 522.215 -80.7592C533.268 -78.7799 544.3 -74.6877 553.177 -66.4367C555.483 -64.3016 558.758 -63.1674 561.753 -62.0332C582.352 -54.2047 592.716 -37.9028 597.822 -16.797C600.774 -4.65398 599.46 7.37788 597.973 19.3875C597.068 26.6155 593.125 32.9316 588.729 38.4916C576.771 53.6148 562.141 64.8238 543.244 69.0938C536.112 70.6951 528.851 70.0947 521.655 70.2281Z" fill="#C16378"/>
<path d="M1046.7 471.891C1046.08 473.58 1045.22 474.939 1044.16 476.185C1040.56 480.407 1036.94 484.628 1032.61 488.346C1029.14 491.332 1026.28 494.812 1022.75 497.767C1022.54 497.942 1022.3 498.158 1022.36 498.57C1022.99 498.879 1023.64 498.632 1024.24 498.437C1029.04 496.923 1033.8 495.358 1038.61 493.875C1045.23 491.826 1051.82 489.674 1058.57 487.965C1060.34 487.522 1062.1 487.069 1063.93 487.47C1064.18 488.078 1063.69 488.304 1063.37 488.531C1060.4 490.693 1057.47 492.886 1054.1 494.596C1050.42 496.46 1046.79 498.395 1043.18 500.341C1038.55 502.844 1033.59 504.687 1028.46 506.252C1026.11 506.962 1026.08 507.004 1026.73 509.156C1027.11 510.391 1027.57 511.617 1028.11 512.811C1030.39 517.836 1032.71 522.861 1035.03 527.875C1036.37 530.769 1037.29 533.755 1037.75 537.349C1029.9 530.264 1024.44 522.119 1017.9 514.489C1017.13 516.714 1016.33 518.886 1015.66 521.079C1013.61 527.886 1011.26 534.61 1008.66 541.261C1008.26 542.291 1007.82 543.3 1007.2 544.237C1006.92 544.649 1006.55 545.02 1005.93 544.999C1005.19 544.979 1004.83 544.536 1004.64 544C1004.29 543.032 1004.18 542.023 1004.16 541.004C1004.06 536.257 1005.04 531.562 1005.25 526.835C1005.5 521.43 1006.08 516.034 1005.98 510.618C1005.98 510.36 1006.04 510.082 1005.53 509.784C1002.03 511.689 998.821 514.129 995.13 515.952C991.498 517.754 988.031 519.782 984.329 521.471C980.603 523.159 977.254 525.487 972.928 526.784C973.258 525.507 974.08 524.879 974.785 524.22C982.789 516.775 990.923 509.454 1000.28 503.286C1000.69 503.008 1001.31 502.782 1001.12 502.205C1000.96 501.67 1000.33 501.536 999.82 501.567C996.023 501.814 992.791 500.28 989.418 499.126C984.987 497.623 980.286 497.191 975.62 496.635C974.468 496.501 973.34 496.326 972 495.986C973.634 495.553 975.103 495.502 976.584 495.492C985.164 495.42 993.696 494.647 1002.23 493.968C1004.44 493.793 1006.68 493.494 1008.94 494.688C1009.56 485.215 1010.56 476.051 1012.82 467C1013.89 467.196 1014.03 467.824 1014.23 468.39C1016.1 473.775 1017.48 479.243 1018 484.865C1018.17 486.677 1018.39 488.5 1019.07 490.25C1019.66 491.744 1019.89 491.857 1021.23 490.868C1024.2 488.706 1027.11 486.482 1029.71 483.969C1033.92 479.902 1038.49 476.164 1043.55 472.91C1044.38 472.385 1045.18 471.634 1046.7 471.901V471.891Z" fill="#C16378"/>
<path d="M941.89 1865.26C936.175 1853.56 930.461 1841.87 922.297 1831.63C915.32 1822.88 907.002 1816.25 896.074 1813.34C889.313 1811.55 882.625 1809.21 876.058 1806.73C864.702 1802.43 854.473 1796.42 847.858 1785.37C845.135 1780.82 843.27 1775.88 841.581 1770.9C837.598 1759.21 830.314 1750.19 820.574 1743.09C813.889 1738.21 806.799 1734.07 799.138 1730.96C790.755 1727.55 782.259 1724.36 773.929 1720.83C755.39 1712.99 739.55 1701.51 728.346 1683.89C721.834 1673.65 714.572 1663.94 706.819 1654.63C705.43 1652.98 704.196 1651.16 702.933 1649.48C703.452 1648.42 703.986 1649.1 704.338 1649.32C717.115 1657.17 730.748 1661.97 745.592 1662.9C754.679 1663.48 763.767 1664.28 772.842 1665.19C784.49 1666.37 795.534 1669.97 805.844 1675.67C812.043 1679.1 817.561 1683.73 822.055 1689.4C833.899 1704.33 844.027 1720.35 850.952 1738.25C854.174 1746.57 857.147 1754.99 861.465 1762.83C866.162 1771.34 871.671 1779.12 879.119 1785.47C884.345 1789.92 890.109 1792.89 896.626 1794.44C898.852 1794.96 901.089 1795.46 903.353 1795.77C910.24 1796.75 916.214 1799.66 921.142 1804.78C925.707 1809.53 930.941 1810.3 936.786 1808.24C936.9 1806.59 935.591 1806.21 934.764 1805.52C930.293 1801.82 925.905 1798.04 921.539 1794.21C912.789 1786.55 906.894 1776.9 901.606 1766.76C894.799 1753.69 891.878 1739.58 890.195 1725.11C889.227 1716.82 889.131 1708.54 889.424 1700.22C889.807 1689.39 893.722 1679.57 896.774 1669.48C900.827 1656.05 906.198 1643.08 909.826 1629.49C911.503 1623.19 913.626 1617 914.632 1610.55C916.501 1598.63 920.76 1587.63 926.234 1577.11C931.466 1567.05 937.642 1557.57 944.06 1547.49C944.467 1558.75 944.919 1569.34 944.229 1579.9C944.074 1582.34 943.396 1584.76 942.804 1587.16C940.438 1596.86 937.974 1606.56 935.615 1616.28C933.651 1624.39 933.679 1632.69 933.811 1641.01C933.977 1650.49 934.727 1659.94 935.403 1669.39C936.176 1680.12 934.622 1690.58 932.637 1701.02C930.998 1709.7 929.4 1718.39 929.537 1727.37C929.749 1741.75 932.949 1755.15 941.508 1767C941.901 1767.55 942.135 1768.36 943.545 1768.33C942.837 1765.47 942.275 1762.7 941.462 1759.98C938.463 1749.84 936.533 1739.47 935.695 1728.98C935.184 1722.58 936.733 1716.25 937.659 1709.95C938.518 1704.2 939.746 1698.52 941.363 1692.96C943.764 1684.73 945.044 1676.27 946.005 1667.73C946.594 1662.46 945.993 1657.25 945.431 1652.03C944.826 1646.22 943.94 1640.44 942.987 1634.67C941.742 1627.15 942.323 1619.84 944.826 1612.75C947.329 1605.65 949.782 1598.58 951.345 1591.17C954.035 1578.43 953.509 1565.73 950.431 1553.04C950.017 1551.37 949.26 1549.76 949.628 1547.32C950.626 1549.28 951.384 1550.79 952.159 1552.3C956.077 1559.82 961.583 1565.9 968.028 1571.28C977.599 1579.3 987.159 1587.34 996.346 1595.83C1007.11 1605.78 1015.53 1617.7 1022.59 1630.64C1024.29 1633.73 1025.34 1637.12 1026.29 1640.48C1028.69 1649.07 1031.43 1657.58 1032.63 1666.47C1034.07 1677.07 1033.35 1687.41 1029.63 1697.39C1027.84 1702.12 1026.12 1706.87 1024.41 1711.63C1021.38 1719.99 1016.6 1727.35 1012.16 1734.89C1005.27 1746.55 996.967 1757.09 987.671 1766.86C979.807 1775.13 972.216 1783.67 964.566 1792.15C961.591 1795.45 959.288 1799.28 957.162 1803.22C955.299 1806.67 954.841 1810.45 955.92 1814.22C957.978 1821.39 960.093 1828.56 962.592 1835.57C966.834 1847.44 974.177 1857.47 981.821 1867.28C982.175 1867.72 982.603 1868.16 983.427 1868.1C982.005 1863.86 980.657 1859.61 979.162 1855.43C974.83 1843.25 973.554 1830.76 976.543 1818.38C980.699 1801.04 989.217 1786.57 1004.85 1777.52C1008.46 1775.44 1012.46 1774.47 1016.38 1773.23C1019.89 1772.11 1023.42 1771.09 1026.91 1769.89C1037.77 1766.19 1045.65 1758.44 1053.17 1750.08C1062.43 1739.79 1067.79 1727.2 1073.2 1714.61C1078.82 1701.54 1085.77 1689.35 1095.35 1678.94C1100.96 1672.84 1107.72 1668.65 1115.63 1666.14C1128.18 1662.15 1141.14 1660.75 1154.18 1659.66C1166.69 1658.61 1178.23 1654.44 1189.2 1648.54C1196.6 1644.57 1203.24 1639.51 1209.39 1633.85C1210.7 1634.76 1210.09 1635.82 1210.06 1636.74C1209.93 1641.45 1208.96 1645.98 1207.37 1650.35C1202.89 1662.54 1198.8 1674.89 1193.73 1686.84C1187.98 1700.43 1180.2 1712.53 1169.81 1722.78C1162.56 1729.92 1153.55 1733.94 1144.27 1737.66C1126.98 1744.59 1112.04 1754.73 1101.71 1771.06C1097.19 1778.21 1093.07 1785.61 1087.9 1792.33C1079.7 1802.95 1069.56 1810.99 1057.85 1817.13C1052.2 1820.09 1046.34 1822.59 1040.41 1824.95C1032.04 1828.26 1024.49 1833.1 1017.75 1839.09C1013.33 1843.01 1010.3 1848.08 1008.4 1853.8C1008.12 1854.22 1007.84 1854.7 1008.45 1855.01C1008.57 1855.09 1008.96 1854.63 1009.22 1854.42C1019.11 1845.4 1031.01 1839.63 1042.71 1833.64C1049.77 1830.04 1057.31 1827.42 1064.45 1823.94C1071.83 1820.34 1079.09 1816.52 1085.8 1811.63C1097.13 1803.4 1105.36 1792.65 1111.24 1779.85C1112.32 1777.49 1113.58 1775.23 1114.79 1772.95C1116.58 1769.6 1119 1766.86 1121.96 1764.52C1131.54 1756.95 1142.24 1751.44 1153.46 1746.97C1159.87 1744.41 1165.65 1740.9 1171.07 1736.76C1180.84 1729.25 1188.84 1720.03 1195.96 1709.83C1200.93 1702.74 1205.27 1695.36 1208.79 1687.48C1212.81 1678.52 1216.32 1669.38 1217.9 1659.52C1218.13 1658.09 1218.36 1656.64 1218.78 1655.26C1220.06 1651.09 1221.06 1646.9 1220.96 1642.43C1220.93 1641.35 1220.86 1640.09 1221.86 1639.15C1223.04 1639.65 1222.79 1640.86 1222.94 1641.71C1224.28 1649.64 1227 1657.26 1227.93 1665.29C1228.62 1671.29 1228.89 1677.24 1228.26 1683.18C1226.6 1698.66 1224.42 1714.03 1220.29 1729.03C1217.95 1737.53 1214.22 1745.29 1209.9 1752.72C1203.97 1762.92 1197.06 1772.43 1189.44 1781.38C1182.02 1790.07 1172.47 1795.49 1162.02 1799.54C1154.62 1802.39 1146.91 1804.29 1139.77 1807.91C1133.72 1810.95 1128.33 1814.79 1123.61 1819.58C1119.5 1823.72 1115.61 1828.11 1111.78 1832.55C1101.76 1844.09 1091.82 1855.8 1079.17 1864.47C1066.76 1872.97 1053.67 1879.69 1038.03 1880.14C1030.25 1880.36 1022.47 1881.37 1014.66 1881.7C1008.88 1881.93 1003.44 1883.42 998.796 1887.09C995.761 1889.48 995.669 1889.81 997.529 1893.46C1006.7 1911.52 1019.45 1926.52 1035.09 1938.98C1048.63 1949.77 1062.78 1959.56 1078.29 1967.11C1080.79 1968.32 1080.84 1968.78 1079.46 1972.73C1078.72 1974.88 1078.07 1975.2 1075.52 1974.3C1070.93 1972.67 1066.25 1971.25 1062 1968.66C1060.77 1967.92 1059.44 1967.27 1058.09 1966.87C1051.07 1964.79 1045.26 1960.43 1039.34 1956.26C1028.25 1948.48 1018.3 1939.41 1009.22 1929.25C1002.11 1921.29 995.875 1912.66 990.011 1903.74C989.453 1902.89 988.924 1902.01 988.288 1901.21C987.97 1900.81 987.544 1900.11 986.949 1900.64C984.58 1902.75 982.118 1900.89 979.806 1900.55C976.256 1900.03 973.44 1900.86 970.793 1903.2C968.325 1905.41 966.202 1907.82 964.367 1910.61C957.06 1921.68 948.617 1931.74 938.047 1939.69C923.895 1950.33 908.417 1950.78 892.552 1940.88C887.51 1937.73 882.516 1934.66 876.896 1932.67C869.202 1929.94 862.253 1931.13 855.934 1935.85C848.027 1941.77 838.974 1944.89 829.553 1947.21C825.233 1948.28 820.822 1948.09 816.403 1947.51C801.817 1945.6 789.608 1938.73 778.887 1928.49C770.687 1920.65 762.663 1912.61 753.944 1905.36C744.977 1897.89 735.06 1891.95 725.441 1885.49C724.877 1885.1 724.119 1884.92 723.785 1884.05C726.207 1883.15 728.635 1883.7 730.976 1883.91C737.972 1884.55 744.532 1883.24 750.832 1880.26C757.099 1877.3 763.207 1873.9 769.993 1872.16C782.449 1868.93 793.882 1870.68 803.862 1880.04C808.315 1884.22 812.8 1888.49 817.776 1891.88C824.638 1896.55 832.241 1898.98 840.511 1896.4C842.479 1895.78 844.006 1894.54 845.528 1893.27C850.579 1889.02 856.208 1885.83 862.37 1883.48C867.954 1881.34 872.627 1882.31 877.454 1886.19C885.009 1892.3 892.701 1898.26 900.813 1903.58C907.058 1907.66 913.684 1910.04 921.147 1907.99C922.805 1907.53 924.398 1906.99 925.838 1906.04C929.525 1903.59 932.534 1900.44 935.079 1896.64C931.327 1897.74 927.874 1899.51 924.116 1900.43C916.173 1902.38 909.003 1900.67 903.106 1894.89C893.687 1885.65 883.387 1877.8 871.91 1871.52C866.42 1868.51 860.539 1867.45 854.507 1867.77C848.754 1868.07 844.875 1871.73 842.182 1876.55C837.574 1884.79 831.663 1886.93 822.919 1883.21C819.287 1881.67 816.114 1879.49 813.51 1876.39C811.446 1873.92 809.315 1871.54 807.222 1869.1C799.21 1859.77 788.648 1855.7 777.153 1854.95C770.083 1854.47 763.506 1857.43 758.301 1862.53C752.613 1868.1 745.578 1870.9 738.208 1873.15C731.463 1875.22 724.759 1873.9 717.712 1873.12C718.807 1871.95 719.983 1871.96 720.987 1871.66C730 1868.85 736.376 1862.95 740.766 1854.54C743.945 1848.41 746.798 1842.12 749.814 1835.91C756.246 1822.63 764.009 1810.16 775.885 1801.2C784.578 1794.64 794.056 1789.56 805.129 1788.25C808.835 1787.82 812.527 1787.77 816.172 1788.55C830.433 1791.64 842.784 1798.15 852.432 1809.83C858.481 1817.14 864.244 1824.67 870.063 1832.15C876.357 1840.24 883.754 1847.24 891.966 1853.31C893.461 1854.41 895.171 1855.26 896.862 1856.06C901.428 1858.21 906.034 1858.41 910.398 1855.82C917.403 1851.65 923.78 1852.5 930.098 1857.85C933.621 1860.83 937.632 1863.21 941.418 1865.86C941.652 1866.14 941.948 1866.58 942.271 1866.15C942.546 1865.79 942.189 1865.45 941.854 1865.21L941.89 1865.26ZM950.699 1871.96C950.304 1871.67 949.938 1871.03 949.491 1871.87C949.867 1871.95 950.242 1872.03 950.618 1872.11C951.135 1872.64 951.791 1872.7 952.455 1872.68C952.865 1872.9 953.284 1873.59 953.695 1872.7C953.309 1872.64 952.923 1872.59 952.536 1872.53C952.034 1871.94 951.367 1871.9 950.699 1871.96ZM1008.14 1856.32C1008.05 1856.23 1007.98 1856.16 1007.89 1856.07C1007.83 1856.15 1007.69 1856.26 1007.7 1856.34C1007.71 1856.41 1007.85 1856.5 1007.92 1856.58C1007.99 1856.49 1008.06 1856.38 1008.13 1856.3L1008.14 1856.32Z" fill="#C16378"/>
<path d="M1122.72 1828.08C1123.11 1828.13 1123.5 1828.19 1123.88 1828.25C1123.47 1829.13 1123.06 1828.47 1122.64 1828.22L1122.72 1828.08Z" fill="#C16479"/>
<path d="M1122.65 1828.22C1121.98 1828.25 1121.33 1828.19 1120.81 1827.66L1120.89 1827.51C1121.58 1827.44 1122.22 1827.47 1122.73 1828.08L1122.65 1828.22Z" fill="#C16479"/>
<path d="M1120.82 1827.68C1120.44 1827.59 1120.07 1827.51 1119.69 1827.43C1120.14 1826.59 1120.5 1827.23 1120.9 1827.53L1120.82 1827.68Z" fill="#C16479"/>
<path d="M1178.33 1811.87C1178.26 1811.95 1178.18 1812.06 1178.12 1812.14C1178.03 1812.05 1177.89 1811.99 1177.9 1811.9C1177.89 1811.83 1178.02 1811.72 1178.09 1811.64C1178.18 1811.72 1178.24 1811.8 1178.33 1811.88L1178.33 1811.87Z" fill="white"/>
<path d="M1179.48 1810C1179.21 1810.22 1178.83 1810.67 1178.71 1810.6C1178.09 1810.27 1178.38 1809.8 1178.66 1809.39C1178.92 1809.59 1179.21 1809.8 1179.48 1810Z" fill="white"/>
<path d="M1112.11 1820.82C1112.44 1821.05 1112.8 1821.4 1112.52 1821.76C1112.2 1822.19 1111.9 1821.74 1111.67 1821.47C1111.8 1821.24 1111.95 1821.03 1112.11 1820.82Z" fill="white"/>
<path d="M-51.0193 508.361C-49.8932 505.623 -49.9475 503.103 -49.0656 500.728C-45.4431 491.047 -37.669 485.898 -26.7067 484.686C-19.014 483.826 -11.3486 484.699 -3.95443 486.988C-0.847519 487.946 2.15086 489.036 4.71507 491.895C5.9904 484.493 10.359 479.925 17.2376 477.114C21.2129 475.49 25.4052 474.885 29.6789 475.054C41.3739 475.502 52.282 478.144 61.7248 484.662C61.9418 484.82 62.3217 484.808 62.9187 484.929C63.8955 483.257 63.7327 481.355 63.9497 479.549C64.4924 475.042 64.7503 470.499 65.4694 466.016C67.111 455.729 77.5306 448.217 89.1306 449.065C101.694 449.986 111.964 454.845 119.589 463.956C122.058 466.9 123.076 470.196 122.954 473.818C124.731 474.049 125.165 472.655 126.047 471.94C128.354 470.062 130.633 468.136 133.333 466.755C139.085 463.823 145.001 463.241 151.16 465.919C165.718 472.231 173.668 482.421 174.306 496.984C174.306 497.227 174.523 497.457 174.659 497.723C175.826 497.893 176.368 496.984 177.155 496.536C189.203 489.581 205.836 495.3 209.269 507.767C210.096 510.772 211.657 512.311 214.94 512.856C216.853 513.171 218.685 513.874 220.584 514.346C232.048 517.254 238.289 528.922 235.223 538.894C232.55 547.605 227.069 554.523 218.264 559.042C212.05 562.229 205.253 562.992 198.334 561.09C189.311 558.618 182.243 553.99 178.593 545.885C178.471 545.618 178.254 545.388 178.037 545.17C177.969 545.097 177.752 545.133 177.318 545.085C177.155 546.418 176.884 547.787 176.829 549.168C176.585 555.892 173.763 561.684 168.879 566.7C164.904 570.795 160.698 574.684 155.23 577.277C139.221 584.862 123.822 580.343 114.108 568.384C110.811 564.325 108.708 559.721 107.352 554.887C105.791 554.778 105.873 555.856 105.533 556.583C105.221 557.249 104.937 557.94 104.719 558.643C102.576 565.476 98.0715 570.541 90.9622 573.873C83.256 577.495 75.3734 580.027 66.5004 578.561C60.273 577.532 54.7376 575.036 49.6499 571.728C43.9109 567.984 39.1217 563.392 34.9972 558.243C33.1928 555.989 32.1888 553.421 31.524 550.331C29.4618 551.846 28.6478 553.639 27.5352 555.19C21.6199 563.38 13.3031 568.372 2.66641 570.298C-1.74295 571.098 -6.15231 570.856 -10.3853 569.377C-21.1034 565.634 -29.8408 559.927 -34.2094 549.883C-36.0274 550.549 -36.6108 551.991 -37.5741 553.094C-39.5956 555.396 -41.59 557.746 -44.3035 559.454C-49.459 562.714 -55.0216 565.888 -61.5204 564.555C-69.8371 562.847 -77.9096 560.169 -82.916 553.203C-85.0189 550.271 -87.2032 547.363 -88.0715 543.74C-94.6923 547.447 -101.015 551.058 -108.558 552.512C-114.175 553.59 -119.195 552.875 -123.984 550.016C-128.366 547.399 -130.279 543.861 -129.967 539.221C-129.655 534.604 -126.345 532.145 -122.017 530.63C-115.762 528.462 -109.413 526.487 -102.575 526.293C-101.761 526.269 -100.947 526.147 -100.133 526.051C-95.6963 525.578 -95.5606 525.554 -96.4561 521.58C-97.4601 517.157 -95.2214 514.274 -91.3412 512.02C-84.7204 508.179 -77.3805 506.362 -69.5929 505.817C-68.9417 505.768 -68.2769 505.853 -67.6256 505.768C-61.846 504.993 -56.202 505.017 -51.06 508.361H-51.0193Z" fill="#C16378"/>
<path d="M15.5543 172.649C12.5942 171.616 10.4292 169.508 8.19585 167.439C0.836203 160.504 -4.03007 152.002 -8.3524 143.094C-11.7298 136.107 -13.6326 128.784 -15.0457 121.267C-16.4131 114.013 -15.6823 106.868 -14.5751 99.763C-13.7066 94.2671 -13.5405 88.7408 -13.7511 83.1751C-13.8712 79.762 -15.1899 77.0838 -17.8831 74.791C-24.1377 69.4476 -30.7786 64.8986 -39.1316 63.6141C-43.8241 62.8885 -48.5345 62.6575 -53.168 63.59C-57.8709 64.5127 -62.7253 64.8824 -67.0843 66.9789C-68.4038 67.6069 -69.3909 67.2465 -70.1126 65.9848C-70.4017 65.4607 -70.7885 64.9849 -71.0388 64.4318C-72.5054 61.3461 -71.929 59.8054 -68.7639 58.6377C-65.7366 57.4988 -62.4966 56.9906 -59.3155 56.5015C-52.4213 55.4469 -45.4912 55.0807 -38.4461 55.3934C-32.8555 55.6454 -27.2215 56.0623 -21.602 55.4417C-14.0902 54.5917 -6.43575 55.1769 1.10207 54.1718C4.3243 53.7508 7.54559 54.9586 10.7425 55.5555C24.1159 58.0606 36.9963 62.2907 49.7858 66.86C60.113 70.5427 69.5907 75.9207 78.6336 82.1415C85.3452 86.7487 92.5433 90.6103 100.06 93.7162C104.511 95.5466 109.327 96.476 113.994 97.8123C115.129 98.1245 116.282 98.398 117.794 98.7981C116.369 100.405 114.867 101.256 113.192 101.902C108.951 103.553 104.573 104.874 99.9967 105.283C94.7198 105.759 89.4278 106.011 84.1357 106.264C82.8224 106.32 81.4645 106.162 80.1832 105.899C65.9615 103.053 52.8477 97.7265 41.4697 88.4767C35.4538 83.6088 29.38 78.8087 23.2098 74.1054C19.0626 70.9375 14.4573 68.4572 9.65279 66.3352C8.674 65.9069 7.60805 65.5561 6.54672 65.3991C2.11197 64.7031 -2.33485 64.3367 -6.80184 64.3678C-8.21514 64.3751 -9.60491 64.5375 -10.8799 65.3789C-10.191 66.5048 -9.18034 66.6131 -8.31441 66.8666C-0.238761 69.382 6.54944 73.8829 12.4235 79.8558C14.8942 82.3518 17.365 84.8479 19.738 87.3922C24.3018 92.2964 29.8172 96.0581 35.2748 99.8876C42.5415 104.981 50.3219 109.221 58.3296 113.045C69.5865 118.427 81.3181 121.307 93.8066 120.242C99.686 119.748 105.621 119.952 111.512 119.943C114.062 119.938 116.525 120.417 118.97 121.391C111.931 125.538 104.423 128.618 96.7531 131.165C89.6816 133.499 82.2343 132.895 74.9832 130.972C69.0051 129.382 63.3407 126.841 57.4434 124.068C57.7037 125.464 58.6153 125.98 59.381 126.592C62.2414 128.846 65.3598 130.723 68.5158 132.522C74.5374 135.955 80.6936 138.806 87.7464 139.866C94.1744 140.837 100.532 142.612 106.785 144.504C114.879 146.981 122.159 150.978 128.233 157.048C134.681 163.468 138.975 171.164 143.054 179.81C136.209 174.563 129.18 172.437 121.264 172.084C110.627 171.581 100.335 169.401 90.4379 164.682C76.7729 158.201 64.7013 149.716 53.7747 139.487C51.7531 137.593 49.9823 135.438 48.1055 133.398C46.6345 131.796 45.3671 130.029 43.5098 128.814C43.3806 128.368 42.9926 127.844 42.623 128.095C42.0873 128.434 42.7567 128.735 42.9813 129.036C43.3919 130.937 44.3521 132.675 45.455 134.17C50.3965 140.839 52.2768 148.463 52.8177 156.298C53.5427 166.906 54.3277 177.544 53.7617 188.315C52.5661 188.332 52.3949 187.362 51.9658 186.77C51.1793 185.692 50.4127 184.625 49.7333 183.479C45.7719 176.88 41.5103 170.541 35.6817 165.237C32.0347 161.905 29.9548 157.539 28.9718 152.747C28.0311 148.072 27.3374 143.398 27.4229 138.647C27.5875 129.718 26.479 120.864 23.5791 112.336C19.4578 100.219 11.477 91.2562 -0.800411 86.1934C-1.31888 87.259 -0.249305 87.3481 0.125822 87.7463C6.11245 94.3012 9.09169 102.005 8.89899 110.585C8.74963 117.653 8.20489 124.72 6.86709 131.689C5.58239 138.396 6.20409 145.048 8.51448 151.636C10.9529 158.621 13.1359 165.673 15.4271 172.707L15.4366 172.687L15.5543 172.649Z" fill="#C16378"/>
<path d="M1077.9 597.084C1079.37 590.735 1080.48 584.555 1082.53 578.606C1082.66 578.217 1082.79 577.827 1082.91 577.427C1083.29 576.069 1083.08 575.848 1081.68 576.069C1077.76 576.68 1073.85 577.322 1069.93 577.88C1068.13 578.143 1066.31 578.091 1064 577.996C1065.97 576.417 1067.99 575.985 1069.86 575.258C1071.88 574.479 1073.88 573.658 1076.01 573.269C1078.04 572.9 1080.09 572.711 1082.34 572.405C1081.59 570.847 1080.27 570.152 1079.5 568.973C1078.71 567.773 1077.82 566.636 1077.04 565.425C1076.31 564.277 1075.67 563.046 1074.95 561.877C1074.19 560.677 1073.38 559.519 1072.68 558.224C1075.21 559.466 1077.76 560.677 1079.94 562.488C1082.15 564.309 1084.77 565.478 1087.15 567.752C1088.39 559.898 1088.98 552.254 1091.49 545C1092.21 545.179 1092.02 545.863 1092.07 546.327C1092.82 552.444 1094.63 558.35 1095.32 564.477C1095.45 565.688 1095.77 565.815 1096.73 565.13C1100.33 562.572 1103.91 560.013 1107.49 557.434C1109.09 556.286 1110.71 555.181 1112.83 554.181C1111.72 557.329 1109.71 559.434 1108.14 561.824C1106.52 564.288 1104.66 566.499 1102.1 568.594C1105.11 569.394 1107.73 568.815 1110.29 569.173C1112.84 569.531 1115.42 569.773 1118 570.257C1113.23 572.679 1108.07 573.7 1102.76 575.332C1104.79 577.69 1106.5 580.112 1107.95 582.712C1109.36 585.239 1111.85 587.008 1112.71 589.988C1110.53 588.429 1108.33 586.892 1106.16 585.313C1104.03 583.755 1102.07 581.923 1099.25 581.091C1100.36 587.377 1099.49 593.578 1099.73 600C1098.19 598.842 1093.73 590.072 1090.56 582.312C1089.58 582.902 1089.16 583.976 1088.52 584.818C1086.59 587.398 1084.68 589.977 1082.35 592.209C1081.42 593.093 1080.73 594.241 1079.88 595.22C1079.36 595.82 1079.01 596.631 1077.9 597.084Z" fill="#C16378"/>
<path d="M1004.9 597.084C1006.37 590.735 1007.48 584.555 1009.53 578.606C1009.66 578.217 1009.79 577.827 1009.91 577.427C1010.29 576.069 1010.08 575.848 1008.68 576.069C1004.76 576.68 1000.85 577.322 996.934 577.88C995.133 578.143 993.312 578.091 991 577.996C992.975 576.417 994.99 575.985 996.862 575.258C998.878 574.479 1000.88 573.658 1003.01 573.269C1005.04 572.9 1007.09 572.711 1009.34 572.405C1008.59 570.847 1007.27 570.152 1006.5 568.973C1005.71 567.773 1004.82 566.636 1004.04 565.425C1003.31 564.277 1002.67 563.046 1001.95 561.877C1001.19 560.677 1000.38 559.519 999.676 558.224C1002.21 559.466 1004.76 560.677 1006.94 562.488C1009.15 564.309 1011.77 565.478 1014.15 567.752C1015.39 559.898 1015.98 552.254 1018.49 545C1019.21 545.179 1019.02 545.863 1019.07 546.327C1019.82 552.444 1021.63 558.35 1022.32 564.477C1022.45 565.688 1022.77 565.815 1023.73 565.13C1027.33 562.572 1030.91 560.013 1034.49 557.434C1036.09 556.286 1037.71 555.181 1039.83 554.181C1038.72 557.329 1036.71 559.434 1035.14 561.824C1033.52 564.288 1031.66 566.499 1029.1 568.594C1032.11 569.394 1034.73 568.815 1037.29 569.173C1039.84 569.531 1042.42 569.773 1045 570.257C1040.23 572.679 1035.07 573.7 1029.76 575.332C1031.79 577.69 1033.5 580.112 1034.95 582.712C1036.36 585.239 1038.85 587.008 1039.71 589.988C1037.53 588.429 1035.33 586.892 1033.16 585.313C1031.03 583.755 1029.07 581.923 1026.25 581.091C1027.36 587.377 1026.49 593.578 1026.73 600C1025.19 598.842 1020.73 590.072 1017.56 582.312C1016.58 582.902 1016.16 583.976 1015.52 584.818C1013.59 587.398 1011.68 589.977 1009.35 592.209C1008.42 593.093 1007.73 594.241 1006.88 595.22C1006.36 595.82 1006.01 596.631 1004.9 597.084Z" fill="#C16378"/>
<path d="M1046.7 471.891C1046.08 473.58 1045.22 474.939 1044.16 476.185C1040.56 480.407 1036.94 484.628 1032.61 488.346C1029.14 491.332 1026.28 494.812 1022.75 497.767C1022.54 497.942 1022.3 498.158 1022.36 498.57C1022.99 498.879 1023.64 498.632 1024.24 498.437C1029.04 496.923 1033.8 495.358 1038.61 493.875C1045.23 491.826 1051.82 489.674 1058.57 487.965C1060.34 487.522 1062.1 487.069 1063.93 487.47C1064.18 488.078 1063.69 488.304 1063.37 488.531C1060.4 490.693 1057.47 492.886 1054.1 494.596C1050.42 496.46 1046.79 498.395 1043.18 500.341C1038.55 502.844 1033.59 504.687 1028.46 506.252C1026.11 506.962 1026.08 507.004 1026.73 509.156C1027.11 510.391 1027.57 511.617 1028.11 512.811C1030.39 517.836 1032.71 522.861 1035.03 527.875C1036.37 530.769 1037.29 533.755 1037.75 537.349C1029.9 530.264 1024.44 522.119 1017.9 514.489C1017.13 516.714 1016.33 518.886 1015.66 521.079C1013.61 527.886 1011.26 534.61 1008.66 541.261C1008.26 542.291 1007.82 543.3 1007.2 544.237C1006.92 544.649 1006.55 545.02 1005.93 544.999C1005.19 544.979 1004.83 544.536 1004.64 544C1004.29 543.032 1004.18 542.023 1004.16 541.004C1004.06 536.257 1005.04 531.562 1005.25 526.835C1005.5 521.43 1006.08 516.034 1005.98 510.618C1005.98 510.36 1006.04 510.082 1005.53 509.784C1002.03 511.689 998.821 514.129 995.13 515.952C991.498 517.754 988.031 519.782 984.329 521.471C980.603 523.159 977.254 525.487 972.928 526.784C973.258 525.507 974.08 524.879 974.785 524.22C982.789 516.775 990.923 509.454 1000.28 503.286C1000.69 503.008 1001.31 502.782 1001.12 502.205C1000.96 501.67 1000.33 501.536 999.82 501.567C996.023 501.814 992.791 500.28 989.418 499.126C984.987 497.623 980.286 497.191 975.62 496.635C974.468 496.501 973.34 496.326 972 495.986C973.634 495.553 975.103 495.502 976.584 495.492C985.164 495.42 993.696 494.647 1002.23 493.968C1004.44 493.793 1006.68 493.494 1008.94 494.688C1009.56 485.215 1010.56 476.051 1012.82 467C1013.89 467.196 1014.03 467.824 1014.23 468.39C1016.1 473.775 1017.48 479.243 1018 484.865C1018.17 486.677 1018.39 488.5 1019.07 490.25C1019.66 491.744 1019.89 491.857 1021.23 490.868C1024.2 488.706 1027.11 486.482 1029.71 483.969C1033.92 479.902 1038.49 476.164 1043.55 472.91C1044.38 472.385 1045.18 471.634 1046.7 471.901V471.891Z" fill="#C16378"/>
<path d="M1077.9 597.084C1079.37 590.735 1080.48 584.555 1082.53 578.606C1082.66 578.217 1082.79 577.827 1082.91 577.427C1083.29 576.069 1083.08 575.848 1081.68 576.069C1077.76 576.68 1073.85 577.322 1069.93 577.88C1068.13 578.143 1066.31 578.091 1064 577.996C1065.97 576.417 1067.99 575.985 1069.86 575.258C1071.88 574.479 1073.88 573.658 1076.01 573.269C1078.04 572.9 1080.09 572.711 1082.34 572.405C1081.59 570.847 1080.27 570.152 1079.5 568.973C1078.71 567.773 1077.82 566.636 1077.04 565.425C1076.31 564.277 1075.67 563.046 1074.95 561.877C1074.19 560.677 1073.38 559.519 1072.68 558.224C1075.21 559.466 1077.76 560.677 1079.94 562.488C1082.15 564.309 1084.77 565.478 1087.15 567.752C1088.39 559.898 1088.98 552.254 1091.49 545C1092.21 545.179 1092.02 545.863 1092.07 546.327C1092.82 552.444 1094.63 558.35 1095.32 564.477C1095.45 565.688 1095.77 565.815 1096.73 565.13C1100.33 562.572 1103.91 560.013 1107.49 557.434C1109.09 556.286 1110.71 555.181 1112.83 554.181C1111.72 557.329 1109.71 559.434 1108.14 561.824C1106.52 564.288 1104.66 566.499 1102.1 568.594C1105.11 569.394 1107.73 568.815 1110.29 569.173C1112.84 569.531 1115.42 569.773 1118 570.257C1113.23 572.679 1108.07 573.7 1102.76 575.332C1104.79 577.69 1106.5 580.112 1107.95 582.712C1109.36 585.239 1111.85 587.008 1112.71 589.988C1110.53 588.429 1108.33 586.892 1106.16 585.313C1104.03 583.755 1102.07 581.923 1099.25 581.091C1100.36 587.377 1099.49 593.578 1099.73 600C1098.19 598.842 1093.73 590.072 1090.56 582.312C1089.58 582.902 1089.16 583.976 1088.52 584.818C1086.59 587.398 1084.68 589.977 1082.35 592.209C1081.42 593.093 1080.73 594.241 1079.88 595.22C1079.36 595.82 1079.01 596.631 1077.9 597.084Z" fill="#C16378"/>
<path d="M1004.9 597.084C1006.37 590.735 1007.48 584.555 1009.53 578.606C1009.66 578.217 1009.79 577.827 1009.91 577.427C1010.29 576.069 1010.08 575.848 1008.68 576.069C1004.76 576.68 1000.85 577.322 996.934 577.88C995.133 578.143 993.312 578.091 991 577.996C992.975 576.417 994.99 575.985 996.862 575.258C998.878 574.479 1000.88 573.658 1003.01 573.269C1005.04 572.9 1007.09 572.711 1009.34 572.405C1008.59 570.847 1007.27 570.152 1006.5 568.973C1005.71 567.773 1004.82 566.636 1004.04 565.425C1003.31 564.277 1002.67 563.046 1001.95 561.877C1001.19 560.677 1000.38 559.519 999.676 558.224C1002.21 559.466 1004.76 560.677 1006.94 562.488C1009.15 564.309 1011.77 565.478 1014.15 567.752C1015.39 559.898 1015.98 552.254 1018.49 545C1019.21 545.179 1019.02 545.863 1019.07 546.327C1019.82 552.444 1021.63 558.35 1022.32 564.477C1022.45 565.688 1022.77 565.815 1023.73 565.13C1027.33 562.572 1030.91 560.013 1034.49 557.434C1036.09 556.286 1037.71 555.181 1039.83 554.181C1038.72 557.329 1036.71 559.434 1035.14 561.824C1033.52 564.288 1031.66 566.499 1029.1 568.594C1032.11 569.394 1034.73 568.815 1037.29 569.173C1039.84 569.531 1042.42 569.773 1045 570.257C1040.23 572.679 1035.07 573.7 1029.76 575.332C1031.79 577.69 1033.5 580.112 1034.95 582.712C1036.36 585.239 1038.85 587.008 1039.71 589.988C1037.53 588.429 1035.33 586.892 1033.16 585.313C1031.03 583.755 1029.07 581.923 1026.25 581.091C1027.36 587.377 1026.49 593.578 1026.73 600C1025.19 598.842 1020.73 590.072 1017.56 582.312C1016.58 582.902 1016.16 583.976 1015.52 584.818C1013.59 587.398 1011.68 589.977 1009.35 592.209C1008.42 593.093 1007.73 594.241 1006.88 595.22C1006.36 595.82 1006.01 596.631 1004.9 597.084Z" fill="#C16378"/>
<path d="M127.703 1044.89C127.08 1046.58 126.222 1047.94 125.164 1049.18C121.556 1053.41 117.936 1057.63 113.611 1061.35C110.144 1064.33 107.276 1067.81 103.75 1070.77C103.539 1070.94 103.304 1071.16 103.362 1071.57C103.985 1071.88 104.643 1071.63 105.243 1071.44C110.038 1069.92 114.798 1068.36 119.605 1066.87C126.234 1064.83 132.816 1062.67 139.574 1060.96C141.337 1060.52 143.1 1060.07 144.933 1060.47C145.18 1061.08 144.686 1061.3 144.369 1061.53C141.396 1063.69 138.469 1065.89 135.096 1067.6C131.417 1069.46 127.785 1071.4 124.177 1073.34C119.546 1075.84 114.587 1077.69 109.462 1079.25C107.112 1079.96 107.076 1080 107.734 1082.16C108.111 1083.39 108.569 1084.62 109.11 1085.81C111.39 1090.84 113.705 1095.86 116.032 1100.88C117.372 1103.77 118.289 1106.75 118.747 1110.35C110.896 1103.26 105.443 1095.12 98.8961 1087.49C98.1321 1089.71 97.333 1091.89 96.663 1094.08C94.6062 1100.89 92.2556 1107.61 89.6581 1114.26C89.2585 1115.29 88.8237 1116.3 88.2007 1117.24C87.9187 1117.65 87.5543 1118.02 86.9314 1118C86.1909 1117.98 85.8266 1117.54 85.6386 1117C85.286 1116.03 85.1801 1115.02 85.1566 1114C85.0626 1109.26 86.0381 1104.56 86.2497 1099.84C86.4965 1094.43 87.0841 1089.03 86.9784 1083.62C86.9784 1083.36 87.0371 1083.08 86.5317 1082.78C83.0293 1084.69 79.8207 1087.13 76.1302 1088.95C72.4985 1090.75 69.0313 1092.78 65.3291 1094.47C61.6033 1096.16 58.2536 1098.49 53.9285 1099.78C54.2576 1098.51 55.0803 1097.88 55.7855 1097.22C63.7894 1089.78 71.9226 1082.45 81.2781 1076.29C81.6895 1076.01 82.3124 1075.78 82.1243 1075.21C81.9598 1074.67 81.3251 1074.54 80.8197 1074.57C77.0234 1074.81 73.7914 1073.28 70.4182 1072.13C65.9873 1070.62 61.286 1070.19 56.62 1069.63C55.4682 1069.5 54.3399 1069.33 53 1068.99C54.6337 1068.55 56.1029 1068.5 57.5838 1068.49C66.1636 1068.42 74.6963 1067.65 83.2291 1066.97C85.4387 1066.79 87.6836 1066.49 89.9402 1067.69C90.5631 1058.22 91.5621 1049.05 93.8187 1040C94.8883 1040.2 95.0293 1040.82 95.2291 1041.39C97.0979 1046.78 98.4848 1052.24 99.0019 1057.87C99.1664 1059.68 99.3897 1061.5 100.071 1063.25C100.659 1064.74 100.894 1064.86 102.234 1063.87C105.196 1061.71 108.111 1059.48 110.708 1056.97C114.916 1052.9 119.488 1049.16 124.553 1045.91C125.376 1045.39 126.175 1044.63 127.703 1044.9V1044.89Z" fill="#C16378"/>
<path d="M143.904 1148.08C145.367 1141.74 146.482 1135.55 148.529 1129.61C148.662 1129.22 148.795 1128.83 148.907 1128.43C149.286 1127.07 149.081 1126.85 147.679 1127.07C143.761 1127.68 139.853 1128.32 135.934 1128.88C134.133 1129.14 132.312 1129.09 130 1129C131.975 1127.42 133.99 1126.98 135.862 1126.26C137.878 1125.48 139.883 1124.66 142.011 1124.27C144.037 1123.9 146.094 1123.71 148.344 1123.41C147.587 1121.85 146.268 1121.15 145.5 1119.97C144.712 1118.77 143.822 1117.64 143.045 1116.42C142.308 1115.28 141.674 1114.05 140.947 1112.88C140.19 1111.68 139.382 1110.52 138.676 1109.22C141.213 1110.47 143.761 1111.68 145.94 1113.49C148.15 1115.31 150.769 1116.48 153.153 1118.75C154.391 1110.9 154.984 1103.25 157.491 1096C158.207 1096.18 158.023 1096.86 158.074 1097.33C158.821 1103.44 160.632 1109.35 161.318 1115.48C161.451 1116.69 161.768 1116.81 162.729 1116.13C166.331 1113.57 169.912 1111.01 173.493 1108.43C175.089 1107.29 176.705 1106.18 178.833 1105.18C177.718 1108.33 175.713 1110.43 174.137 1112.82C172.521 1115.29 170.659 1117.5 168.101 1119.59C171.109 1120.39 173.728 1119.82 176.286 1120.17C178.843 1120.53 181.422 1120.77 184 1121.26C179.232 1123.68 174.066 1124.7 168.756 1126.33C170.792 1128.69 172.5 1131.11 173.953 1133.71C175.365 1136.24 177.851 1138.01 178.71 1140.99C176.531 1139.43 174.332 1137.89 172.163 1136.31C170.034 1134.75 168.07 1132.92 165.246 1132.09C166.361 1138.38 165.492 1144.58 165.727 1151C164.192 1149.84 159.732 1141.07 156.56 1133.31C155.578 1133.9 155.158 1134.98 154.524 1135.82C152.59 1138.4 150.677 1140.98 148.355 1143.21C147.424 1144.09 146.728 1145.24 145.879 1146.22C145.357 1146.82 145.009 1147.63 143.904 1148.08Z" fill="#C16378"/>
<path d="M85.9041 1178.08C87.3672 1171.74 88.4824 1165.55 90.5286 1159.61C90.6616 1159.22 90.7946 1158.83 90.9071 1158.43C91.2857 1157.07 91.0811 1156.85 89.6794 1157.07C85.7609 1157.68 81.8526 1158.32 77.9341 1158.88C76.1334 1159.14 74.3122 1159.09 72 1159C73.9746 1157.42 75.9901 1156.98 77.8624 1156.26C79.878 1155.48 81.8833 1154.66 84.0114 1154.27C86.0371 1153.9 88.0936 1153.71 90.3444 1153.41C89.5873 1151.85 88.2675 1151.15 87.5002 1149.97C86.7124 1148.77 85.8223 1147.64 85.0447 1146.42C84.3081 1145.28 83.6737 1144.05 82.9473 1142.88C82.1902 1141.68 81.3819 1140.52 80.676 1139.22C83.2133 1140.47 85.7609 1141.68 87.9401 1143.49C90.15 1145.31 92.7692 1146.48 95.1531 1148.75C96.391 1140.9 96.9845 1133.25 99.4911 1126C100.207 1126.18 100.023 1126.86 100.074 1127.33C100.821 1133.44 102.632 1139.35 103.318 1145.48C103.451 1146.69 103.768 1146.81 104.729 1146.13C108.331 1143.57 111.912 1141.01 115.493 1138.43C117.089 1137.29 118.705 1136.18 120.833 1135.18C119.718 1138.33 117.713 1140.43 116.137 1142.82C114.521 1145.29 112.659 1147.5 110.101 1149.59C113.109 1150.39 115.728 1149.82 118.286 1150.17C120.843 1150.53 123.422 1150.77 126 1151.26C121.232 1153.68 116.066 1154.7 110.756 1156.33C112.792 1158.69 114.5 1161.11 115.953 1163.71C117.365 1166.24 119.851 1168.01 120.71 1170.99C118.531 1169.43 116.332 1167.89 114.163 1166.31C112.034 1164.75 110.07 1162.92 107.246 1162.09C108.361 1168.38 107.492 1174.58 107.727 1181C106.192 1179.84 101.732 1171.07 98.5601 1163.31C97.5779 1163.9 97.1584 1164.98 96.524 1165.82C94.5903 1168.4 92.6771 1170.98 90.3547 1173.21C89.4236 1174.09 88.7279 1175.24 87.8787 1176.22C87.3569 1176.82 87.0091 1177.63 85.9041 1178.08Z" fill="#C16378"/>
</g>
<defs>
<clipPath id="clip0_48_936">
<rect width="1200" height="1920" fill="white"/>
</clipPath>
</defs>
</svg>
