<svg width="1200" height="1920" viewBox="0 0 1200 1920" fill="none" xmlns="http://www.w3.org/2000/svg">
<g clip-path="url(#clip0_48_936)">
<rect width="1200" height="1920" fill="white"/>
<path d="M1028.08 -22.7091C1036.53 -22.7091 1045.02 -23.366 1053.43 -22.5378C1062.33 -21.6524 1071.23 -22.1379 1080.08 -21.0241C1085.35 -20.3387 1090.62 -20.5672 1095.85 -19.7961C1107.84 -17.9969 1119.91 -18.2254 1131.86 -15.8264C1132.45 -15.7122 1133.07 -15.6836 1133.66 -15.7122C1141.81 -16.1977 1149.93 -14.4842 1158.04 -13.7987C1166.11 -13.0848 1174.21 -11.8853 1182.29 -10.286C1188.4 -9.05797 1194.61 -9.11509 1200.64 -6.85894C1207.69 -4.20297 1213.61 1.56591 1218.34 10.6476C1225.92 25.1555 1229.32 42.6336 1232.51 60.1973C1235.55 76.8185 1236.91 94.011 1238.25 111.203C1239.8 131.109 1240.38 151.072 1239.75 171.034C1239.45 180.83 1239.36 190.711 1238.36 200.507C1237.7 206.904 1237.8 213.444 1237.41 219.927C1236.32 237.862 1235 255.74 1233.78 273.646C1232.35 294.666 1230.01 315.485 1228.87 336.561C1228.12 350.669 1227.06 364.749 1226.24 378.857C1225.24 396.078 1223.6 413.213 1222.92 430.434C1222.33 445.313 1221.44 460.164 1220.74 475.015C1219.01 511.827 1219.67 548.725 1218.83 585.538C1218.09 617.152 1217.86 648.738 1218.47 680.267C1219.22 719.593 1218.33 758.918 1219.35 798.158C1219.83 817.207 1219.34 836.256 1220.17 855.247C1221.61 889.232 1220.99 923.246 1220.72 957.231C1220.58 973.995 1219.68 990.816 1218.43 1007.55C1217.34 1022.12 1216.45 1036.68 1214.57 1051.05C1211.8 1072.44 1207.71 1093.06 1199.28 1110.65C1194.78 1120.05 1189.7 1128.67 1183.21 1134.72C1171.28 1145.89 1159 1145.01 1146.78 1136.55C1133.68 1127.5 1123.94 1111.82 1115.76 1093.57C1103.06 1065.27 1095.71 1033.34 1091.3 999.527C1088.24 976.166 1086.54 952.576 1086.74 928.644C1086.9 908.824 1088.4 889.375 1091.19 870.069C1094.93 844.195 1100.59 819.32 1106.11 794.36C1111.74 768.914 1117.01 743.24 1119.19 716.423C1120.96 694.575 1118.89 673.442 1110.38 655.221C1105.5 644.74 1099.55 635.915 1092.28 629.461C1079.9 618.466 1066.55 612.012 1052.83 607.214C1044.71 604.386 1036.78 600.617 1029.13 595.419C1019.11 588.622 1011 578.483 1006.48 561.948C1003.22 550.039 1002.81 537.644 1003.81 525.107C1006.03 497.462 1014.44 474.129 1024.67 452.368C1036.58 426.95 1048.98 402.104 1060.92 376.715C1067.18 363.435 1072.8 349.441 1076.72 333.877C1081.88 313.343 1079.54 295.551 1070.03 279.444C1061.73 265.364 1051.25 257.825 1040.05 252.513C1029.95 247.743 1019.57 245.059 1009.07 243.317C996.79 241.289 984.497 239.89 972.167 238.833C963.43 238.062 954.656 238.747 945.972 237.462C938.288 236.32 930.605 236.919 922.939 236.148C910.931 234.949 898.888 233.949 886.952 231.75C867.635 228.18 848.516 222.783 830.558 210.103C816.853 200.45 804.577 187.655 795.446 168.178C789.96 156.469 786.78 143.218 787.012 128.596C787.208 116.144 789.799 104.549 793.963 93.8967C799.895 78.7034 807.936 66.8515 816.96 56.5988C831.058 40.6059 846.461 28.6112 862.632 18.9012C881.019 7.87744 899.906 -0.261839 919.079 -6.51623C931.141 -10.4288 943.327 -13.456 955.549 -15.9978C965.842 -18.1682 976.17 -19.5391 986.48 -21.3097C999.238 -23.5088 1012.09 -22.909 1024.9 -22.9661C1025.95 -22.9661 1027.01 -22.9661 1028.06 -22.9661V-22.8233L1028.08 -22.7091Z" fill="#EFC2AE"/>
<rect x="434" y="984" width="100" height="100" fill="#D9D9D9"/>
<path d="M440.222 135.624C421.966 134.189 404.09 130.695 386.527 125.502C367.512 119.865 349.388 112.051 331.38 103.891C314.278 96.1439 297.045 88.6106 278.69 84.2422C270.692 82.3301 262.578 80.6157 254.366 80.3685C237.149 79.841 220.262 82.1323 203.804 87.4732C183.387 94.0833 164.686 103.908 147.321 116.452C137.558 123.508 128.191 131.024 118.89 138.64C109.078 146.701 99.5953 155.19 89.5851 163.004C77.6454 172.317 65.6728 181.614 52.051 188.488C37.918 195.626 23.1583 199.714 7.2113 197.307C-7.89469 195.016 -19.4056 187.186 -27.0081 173.916C-32.813 163.795 -36.1772 152.817 -37.6614 141.245C-38.7828 132.426 -39.0302 123.59 -38.9972 114.689C-38.9312 92.1382 -34.2972 70.6263 -25.4414 50.0046C-19.6694 36.5864 -11.5558 24.6354 -1.59503 13.8712C12.406 -1.27778 29.458 -11.3826 48.8682 -17.9598C67.223 -24.1908 86.089 -27.6525 105.334 -29.4163C117.62 -30.5372 129.923 -30.9329 142.258 -30.9988C149.201 -31.0318 156.094 -30.3724 162.988 -30.4548C183.156 -30.6856 203.16 -27.7679 223.28 -27.4547C238.485 -27.2239 253.574 -25.3447 268.73 -25.2953C278.641 -25.2623 288.503 -24.0425 298.364 -24.2568C307.468 -24.4711 316.472 -23.3501 325.525 -23.2842C341.011 -23.1688 356.48 -22.5754 371.948 -22.2292C379.023 -22.0644 386.114 -21.372 393.173 -21.6687C403.1 -22.0808 412.946 -20.4654 422.807 -20.6797C435.555 -20.9599 448.171 -18.9983 460.853 -19.0807C474.573 -19.1631 488.195 -17.218 501.866 -17.2839C513.773 -17.3499 525.581 -15.685 537.438 -15.8169C550.681 -15.9652 563.791 -14.053 576.968 -14.119C588.05 -14.1684 599.033 -12.7837 610.066 -12.8167C618.592 -12.8497 627.134 -13.0145 635.677 -13.4761C645.522 -14.0036 655.367 -14.5805 665.229 -14.8937C673.442 -15.141 681.638 -15.8498 689.834 -16.4103C695.903 -16.8224 701.955 -17.3664 708.007 -17.7125C719.848 -18.3884 731.722 -19.0148 743.529 -17.3334C752.039 -16.1301 760.4 -14.3003 767.607 -9.15723C774.137 -4.49221 777.419 1.77179 776.957 9.86554C776.875 11.3491 776.545 12.7668 775.984 14.1844C772.834 22.2781 768.217 29.2345 762.131 35.5644C754.067 43.9384 744.717 50.1529 734.278 54.818C724.004 59.4006 713.136 62.2853 702.054 64.115C690.708 65.9778 679.246 66.9503 667.769 67.9888C651.343 69.4559 635.231 72.6044 619.598 78.1925C604.937 83.4345 591.2 90.5557 577.528 97.8417C560.938 106.677 544.562 115.908 526.983 122.733C509.98 129.327 492.417 133.415 474.26 135.112C462.931 136.167 451.618 136.629 440.255 135.689L440.222 135.624Z" fill="#EFC2AE"/>
<path d="M-190.468 1571.65C-191.001 1559.15 -191.385 1550.71 -191.702 1542.27C-192.302 1526.26 -191.885 1510.28 -191.418 1494.24C-190.601 1466.82 -187.632 1439.96 -183.061 1413.48C-178.775 1388.65 -172.169 1365.25 -164.463 1342.5C-158.191 1324 -150.468 1306.87 -143.028 1289.46C-137.357 1276.2 -132.103 1262.52 -126.498 1249.21C-121.177 1236.58 -115.305 1224.53 -109.451 1212.46C-104.63 1202.5 -99.3088 1193.15 -93.971 1183.92C-84.8802 1168.19 -75.5058 1152.79 -65.1472 1138.86C-55.9229 1126.49 -46.5818 1114.36 -36.657 1103.31C-20.0265 1084.78 -2.51204 1068.67 16.3369 1055.84C29.3476 1046.99 42.8088 1040.23 56.7536 1036.52C65.7444 1034.13 74.9854 1033.6 84.2264 1034.26C94.4348 1035 104.31 1037.9 113.934 1042.85C124.243 1048.16 133.651 1056.07 142.508 1065.75C156.92 1081.53 167.245 1102.37 175.469 1125.83C180.906 1141.3 184.626 1157.85 187.412 1174.87C189.697 1188.85 190.998 1203.06 191.882 1217.42C192.483 1227.05 192.666 1236.65 192.766 1246.26C192.883 1258.13 192.399 1270.07 191.749 1281.91C190.381 1306.92 187.412 1331.57 184.259 1356.15C180.323 1386.8 176.186 1417.39 172.683 1448.17C170.598 1466.39 169.18 1484.74 168.179 1503.14C167.595 1513.96 167.112 1524.92 167.879 1535.74C168.88 1550.03 170.298 1564.23 174.701 1577.34C180.389 1594.3 189.38 1604.33 201.49 1608.15C207.862 1610.15 214.284 1610.71 220.806 1610.13C232.282 1609.11 243.575 1606.47 254.868 1603.32C262.807 1601.08 270.797 1599.02 278.704 1596.63C292.298 1592.57 306.027 1591.09 319.788 1590.51C334.6 1589.9 348.762 1594.75 361.773 1605.96C371.547 1614.37 379.421 1626.19 386.71 1639C394.5 1652.72 401.239 1667.64 408.378 1682.1C416.668 1698.9 425.392 1715.16 436.301 1728.3C446.142 1740.17 457.285 1747.69 469.745 1750.31C478.452 1752.14 487.193 1752.09 495.984 1751.81C505.858 1751.5 515.683 1750.13 525.541 1750.05C540.554 1749.93 555.216 1753.59 568.477 1764.87C584.774 1778.72 595.216 1799.64 599.236 1827.64C601.621 1844.24 598.385 1857.91 590.061 1869.09C584.774 1876.21 578.469 1880.42 571.996 1883.98C559.803 1890.67 547.309 1895.62 534.549 1899.23C525.541 1901.77 516.484 1903.78 507.41 1905.76C499.353 1907.52 491.28 1908.13 483.206 1909.14C480.638 1909.47 478.236 1911.07 475.617 1910.95C465.608 1910.49 455.65 1912.39 445.659 1912.55C436.768 1912.7 427.861 1912.67 418.97 1912.7C409.662 1912.72 400.371 1912.78 391.063 1912.93C379.737 1913.13 368.395 1913.61 357.069 1913.74C348.678 1913.82 340.322 1915.32 331.965 1914.99C322.323 1914.61 312.799 1916.1 303.224 1916.84C287.561 1918.06 271.848 1917.68 256.269 1920.48C242.157 1922.99 227.945 1923.5 213.85 1925.86C200.306 1928.15 186.728 1930.08 173.183 1932.47C163.492 1934.17 153.801 1935.8 144.109 1935.8C134.802 1935.8 125.527 1937.58 116.186 1936.77C110.832 1936.31 105.411 1937.07 100.006 1936.99C91.7826 1936.87 83.5925 1936.28 75.3857 1935.85C68.113 1935.47 60.8737 1934.58 53.6177 1933.87C47.8463 1933.28 42.0748 1932.55 36.3201 1931.63C27.346 1930.18 18.3719 1928.89 9.41449 1927.31C-7.66631 1924.34 -24.3968 1919.1 -40.777 1911.15C-55.6393 1903.93 -69.8511 1894.58 -83.1788 1882.18C-95.9227 1870.31 -107.749 1856.56 -118.174 1840.37C-129.55 1822.74 -139.158 1802.84 -148.299 1782.41C-158.374 1759.84 -167.098 1736.23 -173.503 1710.71C-177.373 1695.36 -180.509 1679.68 -182.561 1663.47C-184.663 1646.75 -186.498 1629.98 -188.066 1613.08C-189.467 1597.93 -189.6 1582.71 -190.434 1571.63L-190.468 1571.65Z" fill="#EFC2AE"/>
<path d="M692.009 157.861C692.069 156.591 692.059 155.321 692.189 154.061C692.579 150.261 694.409 147.231 697.219 144.691C702.359 140.031 708.319 136.731 714.679 134.081C716.789 133.201 718.909 132.361 721.009 131.471C724.539 129.981 727.689 127.941 730.579 125.381C734.039 122.321 736.399 118.661 738.139 114.441C740.459 108.821 742.618 103.131 744.848 97.4707C748.878 87.2207 756.049 79.9307 766.269 75.6707C770.559 73.8807 775.049 72.6307 779.329 70.8107C789.969 66.3007 797.569 58.7707 802.139 48.1907C804.379 42.9907 806.449 37.7207 808.739 32.5407C812.239 24.6207 817.679 18.4407 825.519 14.5707C832.569 11.0907 838.819 6.5707 844.329 0.970701C846.339 -1.0793 848.639 -2.8293 851.029 -4.4393C852.869 -5.6793 854.869 -6.1493 857.049 -5.9593C859.479 -5.7493 861.079 -4.3193 861.629 -1.9493C862.039 -0.199297 862.108 1.6107 861.848 3.3507C861.358 6.5607 859.238 8.5107 856.348 9.7907C850.558 12.3607 844.849 15.1307 838.999 17.5407C829.959 21.2707 824.299 28.0107 820.869 36.9307C819.929 39.3807 819.088 41.8607 818.418 44.3907C816.768 50.6407 814.319 56.5507 811.209 62.2007C806.209 71.2807 798.578 76.9907 788.668 79.7707C783.548 81.2107 778.249 81.9207 773.199 83.6707C766.199 86.0907 760.539 90.3607 755.829 95.9607C753.659 98.5507 752.679 101.731 751.909 104.951C750.789 109.631 750.039 114.391 748.929 119.071C746.559 129.081 740.458 135.951 731.549 140.631C726.139 143.471 720.459 145.601 714.629 147.361C711.759 148.221 709.229 149.741 706.809 151.461C703.559 153.761 702.889 157.201 702.739 160.841C702.659 162.861 702.549 164.901 702.999 166.911C703.019 166.991 703.029 167.081 703.039 167.161C703.449 170.401 702.709 172.011 700.569 172.471C697.129 173.211 694.979 172.071 694.029 169.001C692.899 165.361 691.809 161.711 692.029 157.831L692.009 157.861Z" fill="#C16378"/>
<path d="M799.009 105.861C799.069 104.591 799.059 103.321 799.189 102.061C799.579 98.2607 801.409 95.2307 804.219 92.6907C809.359 88.0307 815.319 84.7307 821.679 82.0807C823.789 81.2007 825.909 80.3607 828.009 79.4707C831.539 77.9807 834.689 75.9407 837.579 73.3807C841.039 70.3207 843.399 66.6607 845.139 62.4407C847.459 56.8207 849.618 51.1307 851.848 45.4707C855.878 35.2207 863.049 27.9307 873.269 23.6707C877.559 21.8807 882.049 20.6307 886.329 18.8107C896.969 14.3007 904.569 6.7707 909.139 -3.8093C911.379 -9.0093 913.449 -14.2793 915.739 -19.4593C919.239 -27.3793 924.679 -33.5593 932.519 -37.4293C939.569 -40.9093 945.819 -45.4293 951.329 -51.0293C953.339 -53.0793 955.639 -54.8293 958.029 -56.4393C959.869 -57.6793 961.869 -58.1493 964.049 -57.9593C966.479 -57.7493 968.079 -56.3193 968.629 -53.9493C969.039 -52.1993 969.108 -50.3893 968.848 -48.6493C968.358 -45.4393 966.238 -43.4893 963.348 -42.2093C957.558 -39.6393 951.849 -36.8693 945.999 -34.4593C936.959 -30.7293 931.299 -23.9893 927.869 -15.0693C926.929 -12.6193 926.088 -10.1393 925.418 -7.6093C923.768 -1.3593 921.319 4.5507 918.209 10.2007C913.209 19.2807 905.578 24.9907 895.668 27.7707C890.548 29.2107 885.249 29.9207 880.199 31.6707C873.199 34.0907 867.539 38.3607 862.829 43.9607C860.659 46.5507 859.679 49.7307 858.909 52.9507C857.789 57.6307 857.039 62.3907 855.929 67.0707C853.559 77.0807 847.458 83.9507 838.549 88.6307C833.139 91.4707 827.459 93.6007 821.629 95.3607C818.759 96.2207 816.229 97.7407 813.809 99.4607C810.559 101.761 809.889 105.201 809.739 108.841C809.659 110.861 809.549 112.901 809.999 114.911C810.019 114.991 810.029 115.081 810.039 115.161C810.449 118.401 809.709 120.011 807.569 120.471C804.129 121.211 801.979 120.071 801.029 117.001C799.899 113.361 798.809 109.711 799.029 105.831L799.009 105.861Z" fill="#C16378"/>
<path d="M831.009 157.861C831.069 156.591 831.059 155.321 831.189 154.061C831.579 150.261 833.409 147.231 836.219 144.691C841.359 140.031 847.319 136.731 853.679 134.081C855.789 133.201 857.909 132.361 860.009 131.471C863.539 129.981 866.689 127.941 869.579 125.381C873.039 122.321 875.399 118.661 877.139 114.441C879.459 108.821 881.618 103.131 883.848 97.4707C887.878 87.2207 895.049 79.9307 905.269 75.6707C909.559 73.8807 914.049 72.6307 918.329 70.8107C928.969 66.3007 936.569 58.7707 941.139 48.1907C943.379 42.9907 945.449 37.7207 947.739 32.5407C951.239 24.6207 956.679 18.4407 964.519 14.5707C971.569 11.0907 977.819 6.5707 983.329 0.970701C985.339 -1.0793 987.639 -2.8293 990.029 -4.4393C991.869 -5.6793 993.869 -6.1493 996.049 -5.9593C998.479 -5.7493 1000.08 -4.3193 1000.63 -1.9493C1001.04 -0.199297 1001.11 1.6107 1000.85 3.3507C1000.36 6.5607 998.238 8.5107 995.348 9.7907C989.558 12.3607 983.849 15.1307 977.999 17.5407C968.959 21.2707 963.299 28.0107 959.869 36.9307C958.929 39.3807 958.088 41.8607 957.418 44.3907C955.768 50.6407 953.319 56.5507 950.209 62.2007C945.209 71.2807 937.578 76.9907 927.668 79.7707C922.548 81.2107 917.249 81.9207 912.199 83.6707C905.199 86.0907 899.539 90.3607 894.829 95.9607C892.659 98.5507 891.679 101.731 890.909 104.951C889.789 109.631 889.039 114.391 887.929 119.071C885.559 129.081 879.458 135.951 870.549 140.631C865.139 143.471 859.459 145.601 853.629 147.361C850.759 148.221 848.229 149.741 845.809 151.461C842.559 153.761 841.889 157.201 841.739 160.841C841.659 162.861 841.549 164.901 841.999 166.911C842.019 166.991 842.029 167.081 842.039 167.161C842.449 170.401 841.709 172.011 839.569 172.471C836.129 173.211 833.979 172.071 833.029 169.001C831.899 165.361 830.809 161.711 831.029 157.831L831.009 157.861Z" fill="#C16378"/>
<path d="M938.009 105.861C938.069 104.591 938.059 103.321 938.189 102.061C938.579 98.2607 940.409 95.2307 943.219 92.6907C948.359 88.0307 954.319 84.7307 960.679 82.0807C962.789 81.2007 964.909 80.3607 967.009 79.4707C970.539 77.9807 973.689 75.9407 976.579 73.3807C980.039 70.3207 982.399 66.6607 984.139 62.4407C986.459 56.8207 988.618 51.1307 990.848 45.4707C994.878 35.2207 1002.05 27.9307 1012.27 23.6707C1016.56 21.8807 1021.05 20.6307 1025.33 18.8107C1035.97 14.3007 1043.57 6.7707 1048.14 -3.8093C1050.38 -9.0093 1052.45 -14.2793 1054.74 -19.4593C1058.24 -27.3793 1063.68 -33.5593 1071.52 -37.4293C1078.57 -40.9093 1084.82 -45.4293 1090.33 -51.0293C1092.34 -53.0793 1094.64 -54.8293 1097.03 -56.4393C1098.87 -57.6793 1100.87 -58.1493 1103.05 -57.9593C1105.48 -57.7493 1107.08 -56.3193 1107.63 -53.9493C1108.04 -52.1993 1108.11 -50.3893 1107.85 -48.6493C1107.36 -45.4393 1105.24 -43.4893 1102.35 -42.2093C1096.56 -39.6393 1090.85 -36.8693 1085 -34.4593C1075.96 -30.7293 1070.3 -23.9893 1066.87 -15.0693C1065.93 -12.6193 1065.09 -10.1393 1064.42 -7.6093C1062.77 -1.3593 1060.32 4.5507 1057.21 10.2007C1052.21 19.2807 1044.58 24.9907 1034.67 27.7707C1029.55 29.2107 1024.25 29.9207 1019.2 31.6707C1012.2 34.0907 1006.54 38.3607 1001.83 43.9607C999.659 46.5507 998.679 49.7307 997.909 52.9507C996.789 57.6307 996.039 62.3907 994.929 67.0707C992.559 77.0807 986.458 83.9507 977.549 88.6307C972.139 91.4707 966.459 93.6007 960.629 95.3607C957.759 96.2207 955.229 97.7407 952.809 99.4607C949.559 101.761 948.889 105.201 948.739 108.841C948.659 110.861 948.549 112.901 948.999 114.911C949.019 114.991 949.029 115.081 949.039 115.161C949.449 118.401 948.709 120.011 946.569 120.471C943.129 121.211 940.979 120.071 940.029 117.001C938.899 113.361 937.809 109.711 938.029 105.831L938.009 105.861Z" fill="#C16378"/>
<path d="M368.791 1827.11C369.308 1831.45 367.994 1835.45 366.744 1839.47C362.564 1852.91 354.851 1864.18 346.34 1874.99C339.66 1883.49 331.645 1890.32 323.112 1896.65C314.882 1902.77 305.487 1906.22 295.899 1909.15C288.487 1911.42 281.484 1914.58 274.632 1918.2C270.452 1920.43 267.888 1923.72 266.639 1928.48C263.773 1939.55 262.114 1950.63 265.583 1961.88C267.522 1968.18 270.129 1974.23 274.094 1979.48C278.101 1984.79 281.527 1990.64 286.828 1994.82C288.422 1996.09 288.551 1997.53 287.41 1999.2C286.935 1999.89 286.548 2000.65 286.031 2001.29C283.079 2004.98 280.795 2005.21 277.369 2001.96C274.094 1998.85 271.508 1995.13 268.944 1991.42C263.407 1983.43 258.731 1974.98 254.853 1965.95C251.771 1958.79 248.863 1951.5 244.639 1944.85C238.994 1935.95 235.073 1926.01 229.234 1917.2C226.734 1913.42 226.303 1908.66 225.097 1904.28C220.098 1886.02 217.534 1867.32 215.465 1848.55C213.806 1833.38 214.733 1818.24 217.017 1803.13C218.719 1791.93 219.15 1780.56 218.439 1769.26C218.029 1762.57 216.262 1755.99 215.077 1749.34C214.797 1747.71 214.431 1746.11 214 1744C216.887 1744.8 218.87 1746.18 220.679 1747.85C225.312 1752.16 229.643 1756.81 232.94 1762.3C236.732 1768.62 240.265 1775.09 243.821 1781.56C244.704 1783.16 245.307 1784.96 245.781 1786.74C250.888 1806.27 252.181 1825.93 247.57 1845.81C245.135 1856.31 242.808 1866.83 240.696 1877.42C239.274 1884.55 238.951 1891.83 239.231 1899.1C239.296 1900.59 239.511 1902.15 239.942 1903.57C241.752 1909.53 244.015 1915.34 246.794 1920.9C247.677 1922.65 248.733 1924.32 250.543 1925.37C251.534 1923.83 251.039 1922.47 250.866 1921.25C249.1 1909.62 250.608 1898.37 254.486 1887.4C256.102 1882.8 257.718 1878.19 259.463 1873.66C262.825 1864.96 264.182 1855.75 265.647 1846.61C267.608 1834.43 268.168 1822.1 268.082 1809.76C267.974 1792.41 264.419 1775.96 255.477 1760.99C251.276 1753.94 247.936 1746.4 244.316 1738.99C242.743 1735.79 241.86 1732.43 241.601 1728.79C251.082 1735.08 259.507 1742.57 267.35 1750.63C274.589 1758.05 278.36 1767.75 280.364 1777.98C282.023 1786.43 282.281 1795.06 282.411 1804.14C283.984 1802.96 284.091 1801.49 284.393 1800.15C285.47 1795.19 285.923 1790.15 286.246 1785.1C286.871 1775.47 286.698 1766.02 283.725 1756.56C281.032 1747.93 279.373 1738.88 277.951 1729.9C276.119 1718.27 276.701 1706.7 280.579 1695.43C284.695 1683.46 291.697 1673.41 300.057 1663C297.666 1674.76 299.282 1684.84 303.656 1694.98C309.516 1708.59 313.028 1722.8 313.179 1738.08C313.373 1759.12 310.141 1779.4 303.957 1799.31C302.815 1803 301.199 1806.51 299.777 1810.12C298.678 1812.92 297.235 1815.61 296.825 1818.66C296.33 1819.1 295.92 1819.88 296.459 1820.21C297.213 1820.66 297.192 1819.66 297.407 1819.19C299.54 1817.52 301.113 1815.28 302.32 1812.96C307.642 1802.71 316.067 1795.71 325.547 1790.28C338.389 1782.92 351.231 1775.45 365.021 1769.62C365.775 1771.11 364.676 1771.91 364.18 1772.82C363.318 1774.44 362.435 1776.07 361.444 1777.63C355.605 1786.61 350.261 1795.8 347.158 1806.31C345.219 1812.9 341.018 1818.17 335.609 1822.31C330.352 1826.33 324.901 1830.07 318.889 1832.85C307.62 1838.07 297.213 1844.88 288.314 1853.66C275.667 1866.18 269.31 1881.64 270.452 1900.1C272.111 1900.1 271.573 1898.72 271.853 1898.01C276.399 1886.53 284.221 1878.11 295.08 1873.12C304.022 1869.01 313.179 1865.38 322.725 1862.8C331.903 1860.34 339.854 1855.51 346.706 1848.59C353.946 1841.28 361.465 1834.25 368.856 1827.09H368.813L368.791 1827.11Z" fill="#C16378"/>
<path d="M186 157.003C181.067 166.358 175.041 174.711 166.367 180.819C159.816 185.434 153.286 190.038 145.966 193.317C137.353 197.19 128.416 198.495 119.045 197.837C109.845 197.19 101.06 195.081 92.6087 191.395C81.1446 186.394 71.308 179.221 64.282 168.352C61.148 163.508 59.3384 158.099 57.6906 152.618C55.3957 144.954 53.6165 137.176 54.0714 129.074C54.7285 117.202 56.9223 105.623 62.9273 95.3808C71.3485 81.0142 83.4192 71.3772 99.5943 67.7751C105.478 66.47 111.463 65.8957 117.407 65.0709C119.692 64.7577 121.866 65.5721 124.524 65.7704C123.614 66.992 122.664 67.3261 121.815 67.6394C113.697 70.6985 106.964 76.0756 100.615 81.839C93.1647 88.5838 86.9979 96.4771 83.3788 106.208C82.2566 109.236 81.6298 112.316 81.7309 115.574C81.8725 120.178 81.2861 124.866 82.4588 129.345C84.8042 138.314 88.1201 146.719 95.1361 153.182C103.153 160.563 112.15 166.087 122.27 169.584C129.367 172.038 136.635 173.698 144.228 173.374C149.818 173.134 155.277 172.153 160.585 170.43C165.356 168.885 170.078 167.152 174.657 165.043C178.903 163.08 182.441 160.208 185.232 156.366C185.484 156.575 185.737 156.794 185.99 157.003H186Z" fill="#C16378"/>
<path d="M566.655 70.2281C556.14 70.6729 545.884 69.383 535.714 66.4695C503.221 57.151 484.174 31.3304 484.002 -3.5642C483.915 -20.1775 487.298 -35.8567 494.064 -50.8687C495.766 -54.6717 497.727 -58.2968 500.873 -61.0101C520.178 -77.5789 542.393 -85.185 567.215 -80.7592C578.268 -78.7799 589.3 -74.6877 598.177 -66.4367C600.483 -64.3016 603.758 -63.1674 606.753 -62.0332C627.352 -54.2047 637.716 -37.9028 642.822 -16.797C645.774 -4.65397 644.46 7.37788 642.973 19.3875C642.068 26.6155 638.125 32.9316 633.729 38.4916C621.771 53.6148 607.141 64.8238 588.244 69.0938C581.112 70.6951 573.851 70.0947 566.655 70.2281Z" fill="#C16378"/>
<path d="M1064.7 546.891C1064.08 548.58 1063.22 549.939 1062.16 551.185C1058.56 555.407 1054.94 559.628 1050.61 563.346C1047.14 566.332 1044.28 569.812 1040.75 572.767C1040.54 572.942 1040.3 573.158 1040.36 573.57C1040.99 573.879 1041.64 573.632 1042.24 573.437C1047.04 571.923 1051.8 570.358 1056.61 568.875C1063.23 566.826 1069.82 564.674 1076.57 562.965C1078.34 562.522 1080.1 562.069 1081.93 562.47C1082.18 563.078 1081.69 563.304 1081.37 563.531C1078.4 565.693 1075.47 567.886 1072.1 569.596C1068.42 571.46 1064.79 573.395 1061.18 575.341C1056.55 577.844 1051.59 579.687 1046.46 581.252C1044.11 581.962 1044.08 582.004 1044.73 584.156C1045.11 585.391 1045.57 586.617 1046.11 587.811C1048.39 592.836 1050.71 597.861 1053.03 602.875C1054.37 605.769 1055.29 608.755 1055.75 612.349C1047.9 605.264 1042.44 597.119 1035.9 589.489C1035.13 591.714 1034.33 593.886 1033.66 596.079C1031.61 602.886 1029.26 609.61 1026.66 616.261C1026.26 617.291 1025.82 618.3 1025.2 619.237C1024.92 619.649 1024.55 620.02 1023.93 619.999C1023.19 619.979 1022.83 619.536 1022.64 619C1022.29 618.032 1022.18 617.023 1022.16 616.004C1022.06 611.257 1023.04 606.562 1023.25 601.835C1023.5 596.43 1024.08 591.034 1023.98 585.618C1023.98 585.36 1024.04 585.082 1023.53 584.784C1020.03 586.689 1016.82 589.129 1013.13 590.952C1009.5 592.754 1006.03 594.782 1002.33 596.471C998.603 598.159 995.254 600.487 990.928 601.784C991.258 600.507 992.08 599.879 992.785 599.22C1000.79 591.775 1008.92 584.454 1018.28 578.286C1018.69 578.008 1019.31 577.782 1019.12 577.205C1018.96 576.67 1018.33 576.536 1017.82 576.567C1014.02 576.814 1010.79 575.28 1007.42 574.126C1002.99 572.623 998.286 572.191 993.62 571.635C992.468 571.501 991.34 571.326 990 570.986C991.634 570.553 993.103 570.502 994.584 570.492C1003.16 570.42 1011.7 569.647 1020.23 568.968C1022.44 568.793 1024.68 568.494 1026.94 569.688C1027.56 560.215 1028.56 551.051 1030.82 542C1031.89 542.196 1032.03 542.824 1032.23 543.39C1034.1 548.775 1035.48 554.243 1036 559.865C1036.17 561.677 1036.39 563.5 1037.07 565.25C1037.66 566.744 1037.89 566.857 1039.23 565.868C1042.2 563.706 1045.11 561.482 1047.71 558.969C1051.92 554.902 1056.49 551.164 1061.55 547.91C1062.38 547.385 1063.18 546.634 1064.7 546.901V546.891Z" fill="#C16378"/>
<path d="M870.393 1943.57C863.577 1929.62 856.761 1915.68 847.025 1903.47C838.705 1893.03 828.785 1885.12 815.751 1881.66C807.688 1879.52 799.712 1876.73 791.88 1873.77C778.337 1868.65 766.138 1861.47 758.248 1848.29C755.001 1842.87 752.776 1836.98 750.762 1831.04C746.012 1817.1 737.325 1806.34 725.71 1797.87C717.736 1792.05 709.281 1787.12 700.144 1783.4C690.146 1779.34 680.014 1775.53 670.08 1771.32C647.97 1761.97 629.079 1748.28 615.717 1727.27C607.95 1715.06 599.289 1703.48 590.043 1692.38C588.387 1690.4 586.916 1688.24 585.409 1686.23C586.028 1684.96 586.665 1685.77 587.085 1686.05C602.322 1695.41 618.581 1701.13 636.285 1702.24C647.121 1702.93 657.96 1703.88 668.783 1704.97C682.675 1706.38 695.846 1710.66 708.142 1717.47C715.535 1721.56 722.116 1727.08 727.476 1733.84C741.601 1751.64 753.679 1770.76 761.938 1792.11C765.781 1802.02 769.327 1812.07 774.477 1821.41C780.079 1831.57 786.648 1840.85 795.531 1848.42C801.763 1853.73 808.637 1857.27 816.41 1859.12C819.065 1859.74 821.732 1860.33 824.433 1860.7C832.646 1861.87 839.771 1865.34 845.648 1871.45C851.092 1877.12 857.334 1878.03 864.306 1875.57C864.442 1873.61 862.88 1873.15 861.894 1872.33C856.562 1867.92 851.329 1863.41 846.122 1858.83C835.686 1849.7 828.655 1838.19 822.349 1826.1C814.231 1810.52 810.748 1793.68 808.74 1776.43C807.586 1766.54 807.472 1756.67 807.821 1746.75C808.277 1733.84 812.947 1722.12 816.587 1710.08C821.42 1694.07 827.825 1678.6 832.153 1662.39C834.153 1654.88 836.684 1647.5 837.884 1639.81C840.114 1625.59 845.193 1612.46 851.721 1599.93C857.961 1587.92 865.326 1576.62 872.981 1564.6C873.466 1578.03 874.005 1590.65 873.182 1603.25C872.997 1606.16 872.189 1609.05 871.482 1611.91C868.66 1623.48 865.722 1635.05 862.908 1646.64C860.567 1656.31 860.6 1666.21 860.757 1676.13C860.955 1687.44 861.85 1698.7 862.656 1709.98C863.578 1722.77 861.724 1735.25 859.358 1747.69C857.403 1758.05 855.496 1768.42 855.66 1779.12C855.913 1796.27 859.73 1812.25 869.937 1826.39C870.405 1827.05 870.685 1828.01 872.366 1827.97C871.521 1824.56 870.851 1821.26 869.883 1818.01C866.305 1805.92 864.004 1793.56 863.004 1781.05C862.394 1773.42 864.242 1765.87 865.346 1758.35C866.371 1751.49 867.836 1744.72 869.764 1738.08C872.627 1728.27 874.153 1718.19 875.3 1708C876.003 1701.72 875.285 1695.49 874.616 1689.28C873.894 1682.35 872.838 1675.45 871.7 1668.57C870.216 1659.6 870.908 1650.88 873.894 1642.42C876.879 1633.96 879.804 1625.52 881.669 1616.69C884.876 1601.5 884.249 1586.35 880.579 1571.22C880.084 1569.22 879.183 1567.3 879.621 1564.4C880.811 1566.73 881.715 1568.53 882.64 1570.33C887.312 1579.3 893.878 1586.55 901.565 1592.97C912.979 1602.53 924.381 1612.12 935.337 1622.25C948.18 1634.11 958.213 1648.34 966.64 1663.76C968.663 1667.45 969.92 1671.49 971.053 1675.5C973.915 1685.75 977.178 1695.89 978.61 1706.49C980.326 1719.14 979.473 1731.47 975.029 1743.37C972.902 1749.01 970.85 1754.67 968.807 1760.35C965.197 1770.32 959.487 1779.1 954.195 1788.09C945.984 1802 936.078 1814.57 924.991 1826.23C915.612 1836.08 906.56 1846.27 897.436 1856.38C893.888 1860.32 891.142 1864.88 888.606 1869.59C886.384 1873.7 885.838 1878.2 887.124 1882.71C889.579 1891.25 892.101 1899.8 895.083 1908.16C900.141 1922.32 908.898 1934.29 918.014 1945.98C918.437 1946.51 918.947 1947.04 919.93 1946.97C918.234 1941.9 916.626 1936.83 914.844 1931.85C909.677 1917.33 908.156 1902.43 911.72 1887.66C916.677 1866.99 926.836 1849.73 945.476 1838.94C949.779 1836.46 954.56 1835.29 959.227 1833.81C963.42 1832.49 967.631 1831.27 971.787 1829.83C984.742 1825.43 994.135 1816.18 1003.11 1806.21C1014.15 1793.94 1020.54 1778.92 1026.99 1763.91C1033.7 1748.32 1041.98 1733.78 1053.41 1721.37C1060.1 1714.09 1068.17 1709.09 1077.6 1706.1C1092.56 1701.34 1108.02 1699.67 1123.57 1698.37C1138.5 1697.13 1152.25 1692.14 1165.33 1685.11C1174.16 1680.38 1182.08 1674.34 1189.42 1667.59C1190.98 1668.68 1190.25 1669.94 1190.21 1671.04C1190.07 1676.65 1188.91 1682.06 1187.01 1687.27C1181.67 1701.81 1176.78 1716.54 1170.74 1730.79C1163.89 1746.99 1154.61 1761.42 1142.21 1773.65C1133.57 1782.17 1122.82 1786.96 1111.75 1791.4C1091.14 1799.67 1073.31 1811.75 1061 1831.23C1055.61 1839.76 1050.7 1848.59 1044.52 1856.59C1034.74 1869.27 1022.65 1878.85 1008.69 1886.18C1001.95 1889.71 994.961 1892.69 987.893 1895.51C977.91 1899.45 968.908 1905.22 960.863 1912.37C955.59 1917.04 951.979 1923.08 949.709 1929.91C949.385 1930.41 949.042 1930.98 949.774 1931.36C949.92 1931.44 950.387 1930.9 950.686 1930.65C962.488 1919.89 976.676 1913 990.637 1905.87C999.048 1901.57 1008.05 1898.45 1016.56 1894.3C1025.36 1890 1034.02 1885.45 1042.02 1879.62C1055.54 1869.8 1065.35 1856.97 1072.36 1841.71C1073.66 1838.9 1075.15 1836.2 1076.6 1833.48C1078.73 1829.49 1081.62 1826.22 1085.15 1823.43C1096.57 1814.4 1109.34 1807.84 1122.71 1802.5C1130.36 1799.44 1137.26 1795.26 1143.72 1790.32C1155.37 1781.37 1164.91 1770.37 1173.41 1758.21C1179.32 1749.75 1184.5 1740.95 1188.7 1731.55C1193.5 1720.87 1197.69 1709.96 1199.57 1698.21C1199.85 1696.5 1200.11 1694.77 1200.62 1693.13C1202.14 1688.15 1203.33 1683.15 1203.21 1677.83C1203.18 1676.54 1203.09 1675.03 1204.29 1673.91C1205.7 1674.51 1205.4 1675.95 1205.58 1676.97C1207.17 1686.42 1210.42 1695.51 1211.53 1705.09C1212.35 1712.25 1212.68 1719.34 1211.92 1726.43C1209.94 1744.88 1207.34 1763.21 1202.41 1781.11C1199.62 1791.25 1195.18 1800.49 1190.03 1809.36C1182.95 1821.53 1174.71 1832.86 1165.62 1843.53C1156.78 1853.91 1145.39 1860.37 1132.93 1865.19C1124.1 1868.6 1114.91 1870.87 1106.39 1875.18C1099.18 1878.81 1092.75 1883.39 1087.11 1889.09C1082.21 1894.04 1077.57 1899.26 1073.01 1904.56C1061.06 1918.33 1049.2 1932.29 1034.11 1942.63C1019.31 1952.77 1003.7 1960.79 985.054 1961.32C975.776 1961.58 966.497 1962.79 957.176 1963.19C950.285 1963.46 943.803 1965.24 938.26 1969.61C934.639 1972.46 934.53 1972.85 936.748 1977.21C947.687 1998.74 962.896 2016.63 981.548 2031.49C997.688 2044.36 1014.57 2056.03 1033.07 2065.04C1036.04 2066.49 1036.1 2067.04 1034.46 2071.75C1033.58 2074.31 1032.8 2074.69 1029.76 2073.62C1024.29 2071.67 1018.7 2069.98 1013.64 2066.89C1012.17 2066.01 1010.59 2065.23 1008.97 2064.75C1000.6 2062.27 993.675 2057.07 986.607 2052.11C973.39 2042.82 961.521 2032.01 950.694 2019.89C942.215 2010.4 934.776 2000.11 927.782 1989.47C927.117 1988.45 926.485 1987.4 925.727 1986.45C925.348 1985.97 924.84 1985.14 924.13 1985.77C921.305 1988.29 918.368 1986.06 915.612 1985.67C911.378 1985.05 908.02 1986.03 904.863 1988.83C901.919 1991.45 899.387 1994.33 897.199 1997.66C888.485 2010.86 878.415 2022.86 865.809 2032.35C848.932 2045.03 830.472 2045.57 811.551 2033.76C805.538 2030 799.583 2026.34 792.879 2023.96C783.704 2020.71 775.417 2022.13 767.88 2027.77C758.451 2034.82 747.653 2038.55 736.418 2041.31C731.265 2042.59 726.005 2042.36 720.735 2041.67C703.339 2039.39 688.779 2031.2 675.992 2018.99C666.213 2009.64 656.643 2000.05 646.245 1991.4C635.552 1982.5 623.724 1975.4 612.252 1967.71C611.579 1967.24 610.676 1967.02 610.277 1965.98C613.166 1964.91 616.062 1965.57 618.853 1965.81C627.196 1966.57 635.02 1965.02 642.534 1961.47C650.008 1957.94 657.293 1953.88 665.385 1951.8C680.241 1947.96 693.876 1950.04 705.778 1961.2C711.089 1966.19 716.438 1971.27 722.372 1975.32C730.556 1980.9 739.623 1983.79 749.486 1980.71C751.833 1979.98 753.655 1978.49 755.469 1976.98C761.494 1971.92 768.206 1968.11 775.555 1965.31C782.216 1962.76 787.789 1963.91 793.546 1968.54C802.555 1975.83 811.73 1982.93 821.403 1989.27C828.851 1994.14 836.754 1996.98 845.654 1994.54C847.632 1993.99 849.531 1993.35 851.249 1992.2C855.646 1989.29 859.235 1985.53 862.269 1981C857.795 1982.31 853.677 1984.42 849.195 1985.52C839.722 1987.84 831.171 1985.8 824.138 1978.91C812.904 1967.89 800.621 1958.53 786.934 1951.04C780.386 1947.45 773.373 1946.18 766.178 1946.57C759.317 1946.92 754.69 1951.29 751.48 1957.05C745.984 1966.86 738.934 1969.42 728.506 1964.99C724.174 1963.15 720.39 1960.55 717.285 1956.85C714.823 1953.91 712.281 1951.06 709.786 1948.16C700.231 1937.03 687.634 1932.17 673.925 1931.27C665.493 1930.71 657.65 1934.23 651.441 1940.31C644.658 1946.96 636.268 1950.3 627.478 1952.99C619.434 1955.45 611.438 1953.88 603.035 1952.95C604.34 1951.55 605.742 1951.57 606.94 1951.2C617.69 1947.85 625.294 1940.82 630.529 1930.79C634.321 1923.48 637.723 1915.98 641.32 1908.57C648.991 1892.74 658.249 1877.86 672.413 1867.18C682.779 1859.35 694.084 1853.3 707.289 1851.73C711.71 1851.22 716.112 1851.16 720.46 1852.09C737.467 1855.77 752.198 1863.54 763.704 1877.47C770.917 1886.19 777.791 1895.17 784.731 1904.08C792.237 1913.73 801.058 1922.08 810.853 1929.32C812.636 1930.64 814.675 1931.65 816.692 1932.6C822.137 1935.17 827.63 1935.4 832.835 1932.31C841.189 1927.35 848.795 1928.35 856.329 1934.73C860.531 1938.3 865.315 1941.13 869.83 1944.29C870.108 1944.62 870.462 1945.15 870.847 1944.64C871.174 1944.21 870.749 1943.8 870.35 1943.52L870.393 1943.57ZM880.898 1951.57C880.427 1951.22 879.99 1950.45 879.457 1951.45C879.905 1951.55 880.353 1951.65 880.801 1951.75C881.418 1952.37 882.201 1952.45 882.993 1952.42C883.481 1952.69 883.982 1953.5 884.471 1952.45C884.011 1952.38 883.55 1952.31 883.089 1952.24C882.49 1951.54 881.695 1951.49 880.898 1951.57ZM949.397 1932.91C949.291 1932.81 949.213 1932.72 949.107 1932.61C949.028 1932.71 948.868 1932.84 948.878 1932.93C948.888 1933.02 949.063 1933.13 949.141 1933.22C949.22 1933.12 949.311 1932.99 949.39 1932.89L949.397 1932.91Z" fill="#C16378"/>
<path d="M1086.06 1899.23C1086.52 1899.3 1086.98 1899.37 1087.44 1899.44C1086.95 1900.49 1086.46 1899.7 1085.96 1899.41L1086.06 1899.23Z" fill="#C16479"/>
<path d="M1085.97 1899.4C1085.18 1899.43 1084.39 1899.36 1083.78 1898.73L1083.87 1898.55C1084.69 1898.47 1085.46 1898.5 1086.06 1899.23L1085.97 1899.4Z" fill="#C16479"/>
<path d="M1083.78 1898.75C1083.34 1898.65 1082.89 1898.56 1082.44 1898.46C1082.97 1897.46 1083.41 1898.22 1083.88 1898.57L1083.78 1898.75Z" fill="#C16479"/>
<path d="M1152.37 1879.9C1152.29 1880 1152.2 1880.12 1152.12 1880.22C1152.01 1880.12 1151.85 1880.04 1151.86 1879.94C1151.85 1879.85 1152.01 1879.72 1152.09 1879.62C1152.19 1879.73 1152.27 1879.82 1152.38 1879.92L1152.37 1879.9Z" fill="white"/>
<path d="M1153.74 1877.68C1153.42 1877.93 1152.97 1878.47 1152.83 1878.38C1152.09 1877.99 1152.44 1877.44 1152.76 1876.94C1153.08 1877.18 1153.42 1877.43 1153.74 1877.68Z" fill="white"/>
<path d="M1073.39 1890.57C1073.79 1890.85 1074.22 1891.27 1073.89 1891.69C1073.5 1892.21 1073.15 1891.67 1072.87 1891.35C1073.03 1891.08 1073.21 1890.83 1073.39 1890.57Z" fill="white"/>
<path d="M-55.7668 504.314C-54.7084 501.762 -54.7594 499.414 -53.9305 497.201C-50.5258 488.18 -43.219 483.382 -32.9156 482.253C-25.6853 481.452 -18.4806 482.265 -11.5309 484.398C-8.61079 485.29 -5.79263 486.306 -3.38255 488.971C-2.18388 482.073 1.92216 477.816 8.3873 475.197C12.1236 473.684 16.0639 473.12 20.0807 473.278C31.0727 473.695 41.3251 476.157 50.2003 482.231C50.4044 482.377 50.7614 482.366 51.3225 482.479C52.2406 480.921 52.0875 479.149 52.2916 477.466C52.8016 473.266 53.044 469.033 53.7198 464.855C55.2628 455.27 65.0561 448.271 75.9588 449.061C87.7669 449.919 97.42 454.446 104.587 462.936C106.907 465.68 107.864 468.75 107.749 472.126C109.419 472.341 109.827 471.042 110.656 470.376C112.824 468.626 114.966 466.831 117.504 465.544C122.911 462.812 128.471 462.27 134.26 464.765C147.943 470.647 155.415 480.142 156.014 493.713C156.014 493.938 156.218 494.153 156.346 494.401C157.443 494.559 157.953 493.713 158.692 493.295C170.016 486.814 185.649 492.143 188.876 503.761C189.654 506.56 191.12 507.994 194.206 508.502C196.004 508.796 197.725 509.451 199.511 509.891C210.286 512.601 216.152 523.473 213.27 532.764C210.758 540.882 205.606 547.328 197.33 551.54C191.49 554.509 185.101 555.22 178.598 553.448C170.118 551.144 163.474 546.832 160.044 539.279C159.929 539.03 159.725 538.816 159.521 538.613C159.457 538.545 159.253 538.579 158.845 538.534C158.692 539.775 158.437 541.051 158.386 542.338C158.157 548.604 155.504 554.001 150.914 558.675C147.177 562.491 143.224 566.115 138.085 568.531C123.038 575.598 108.565 571.387 99.4348 560.244C96.3362 556.462 94.3597 552.172 93.0845 547.667C91.618 547.566 91.6945 548.57 91.3757 549.248C91.0824 549.869 90.8147 550.512 90.6106 551.167C88.5959 557.535 84.3623 562.254 77.6803 565.359C70.4374 568.734 63.0285 571.094 54.6889 569.728C48.8358 568.768 43.6332 566.442 38.8512 563.36C33.4573 559.872 28.9559 555.593 25.0794 550.794C23.3834 548.695 22.4398 546.301 21.8149 543.422C19.8767 544.833 19.1116 546.504 18.0659 547.949C12.5061 555.581 4.6893 560.233 -5.30807 562.028C-9.45239 562.773 -13.5967 562.547 -17.5753 561.17C-27.6491 557.681 -35.8613 552.364 -39.9673 543.004C-41.6761 543.625 -42.2244 544.969 -43.1297 545.996C-45.0298 548.141 -46.9043 550.332 -49.4546 551.923C-54.3003 554.96 -59.5285 557.918 -65.6366 556.677C-73.4534 555.085 -81.0408 552.59 -85.7462 546.098C-87.7227 543.366 -89.7757 540.656 -90.5918 537.28C-96.8147 540.735 -102.757 544.1 -109.847 545.454C-115.126 546.459 -119.844 545.793 -124.346 543.129C-128.464 540.69 -130.263 537.393 -129.969 533.069C-129.676 528.768 -126.564 526.476 -122.497 525.065C-116.618 523.044 -110.65 521.204 -104.223 521.023C-103.458 521 -102.693 520.887 -101.928 520.797C-97.7583 520.357 -97.6308 520.334 -98.4724 516.631C-99.416 512.51 -97.3119 509.823 -93.6649 507.723C-87.4421 504.144 -80.5434 502.451 -73.2239 501.943C-72.6118 501.898 -71.987 501.977 -71.3749 501.898C-65.9427 501.175 -60.6379 501.198 -55.805 504.314H-55.7668Z" fill="#C16378"/>
<path d="M269.554 69.6487C266.594 68.6159 264.429 66.5082 262.196 64.4392C254.836 57.5038 249.97 49.0021 245.648 40.094C242.27 33.1073 240.367 25.7838 238.954 18.2673C237.587 11.0125 238.318 3.86806 239.425 -3.23696C240.293 -8.73291 240.459 -14.2592 240.249 -19.8249C240.129 -23.238 238.81 -25.9162 236.117 -28.209C229.862 -33.5524 223.221 -38.1014 214.868 -39.3859C210.176 -40.1115 205.466 -40.3425 200.832 -39.41C196.129 -38.4873 191.275 -38.1176 186.916 -36.0211C185.596 -35.3931 184.609 -35.7535 183.887 -37.0152C183.598 -37.5393 183.211 -38.0151 182.961 -38.5682C181.495 -41.6539 182.071 -43.1946 185.236 -44.3623C188.263 -45.5012 191.503 -46.0094 194.685 -46.4985C201.579 -47.5531 208.509 -47.9193 215.554 -47.6066C221.144 -47.3546 226.779 -46.9377 232.398 -47.5583C239.91 -48.4083 247.564 -47.8231 255.102 -48.8282C258.324 -49.2492 261.546 -48.0414 264.742 -47.4445C278.116 -44.9394 290.996 -40.7093 303.786 -36.14C314.113 -32.4573 323.591 -27.0793 332.634 -20.8585C339.345 -16.2513 346.543 -12.3897 354.06 -9.28383C358.511 -7.45339 363.327 -6.52403 367.994 -5.1877C369.129 -4.87549 370.282 -4.60205 371.794 -4.20192C370.369 -2.59489 368.867 -1.74423 367.192 -1.09751C362.951 0.553161 358.573 1.87395 353.997 2.28299C348.72 2.7587 343.428 3.01139 338.136 3.26407C336.822 3.31999 335.464 3.1625 334.183 2.89851C319.962 0.0526127 306.848 -5.27347 295.47 -14.5233C289.454 -19.3912 283.38 -24.1913 277.21 -28.8946C273.063 -32.0625 268.457 -34.5428 263.653 -36.6648C262.674 -37.0931 261.608 -37.4439 260.547 -37.6009C256.112 -38.2969 251.665 -38.6633 247.198 -38.6322C245.785 -38.6249 244.395 -38.4624 243.12 -37.6211C243.809 -36.4952 244.82 -36.3869 245.686 -36.1334C253.761 -33.618 260.549 -29.1171 266.423 -23.1442C268.894 -20.6482 271.365 -18.1521 273.738 -15.6078C278.302 -10.7036 283.817 -6.94192 289.275 -3.11244C296.542 1.98059 304.322 6.22128 312.33 10.0455C323.587 15.4265 335.318 18.3069 347.807 17.2424C353.686 16.7484 359.621 16.9525 365.512 16.9432C368.062 16.9379 370.525 17.4173 372.97 18.391C365.931 22.5384 358.423 25.6184 350.753 28.1649C343.682 30.4991 336.234 29.8948 328.983 27.9722C323.005 26.3816 317.341 23.8412 311.443 21.0678C311.704 22.4645 312.615 22.98 313.381 23.5921C316.241 25.8464 319.36 27.723 322.516 29.5222C328.537 32.9551 334.694 35.8065 341.746 36.8657C348.174 37.8366 354.532 39.6122 360.785 41.5039C368.879 43.9806 376.159 47.978 382.233 54.0482C388.681 60.4682 392.975 68.1642 397.054 76.81C390.209 71.5626 383.18 69.4369 375.264 69.0839C364.627 68.5809 354.335 66.401 344.438 61.6816C330.773 55.2007 318.701 46.7158 307.775 36.4874C305.753 34.5933 303.982 32.4378 302.106 30.3985C300.634 28.7962 299.367 27.0293 297.51 25.8141C297.381 25.3679 296.993 24.8437 296.623 25.0951C296.087 25.4336 296.757 25.7353 296.981 26.0363C297.392 27.9373 298.352 29.6745 299.455 31.1695C304.397 37.839 306.277 45.463 306.818 53.298C307.543 63.9063 308.328 74.5438 307.762 85.3147C306.566 85.332 306.395 84.3622 305.966 83.7701C305.179 82.6925 304.413 81.6247 303.733 80.4794C299.772 73.8796 295.51 67.5409 289.682 62.2371C286.035 58.9052 283.955 54.5385 282.972 49.7472C282.031 45.0722 281.337 40.3978 281.423 35.6471C281.588 26.7176 280.479 17.8636 277.579 9.3361C273.458 -2.78088 265.477 -11.7438 253.2 -16.8066C252.681 -15.741 253.751 -15.6519 254.126 -15.2537C260.112 -8.69881 263.092 -0.995315 262.899 7.58502C262.75 14.6529 262.205 21.72 260.867 28.6889C259.582 35.3961 260.204 42.0484 262.514 48.6357C264.953 55.6208 267.136 62.6734 269.427 69.7067L269.437 69.6873L269.554 69.6487Z" fill="#C16378"/>
<path d="M1095.9 672.084C1097.37 665.735 1098.48 659.555 1100.53 653.606C1100.66 653.217 1100.79 652.827 1100.91 652.427C1101.29 651.069 1101.08 650.848 1099.68 651.069C1095.76 651.68 1091.85 652.322 1087.93 652.88C1086.13 653.143 1084.31 653.091 1082 652.996C1083.97 651.417 1085.99 650.985 1087.86 650.258C1089.88 649.479 1091.88 648.658 1094.01 648.269C1096.04 647.9 1098.09 647.711 1100.34 647.405C1099.59 645.847 1098.27 645.152 1097.5 643.973C1096.71 642.773 1095.82 641.636 1095.04 640.425C1094.31 639.277 1093.67 638.046 1092.95 636.877C1092.19 635.677 1091.38 634.519 1090.68 633.224C1093.21 634.466 1095.76 635.677 1097.94 637.488C1100.15 639.309 1102.77 640.478 1105.15 642.752C1106.39 634.898 1106.98 627.254 1109.49 620C1110.21 620.179 1110.02 620.863 1110.07 621.327C1110.82 627.444 1112.63 633.35 1113.32 639.477C1113.45 640.688 1113.77 640.815 1114.73 640.13C1118.33 637.572 1121.91 635.013 1125.49 632.434C1127.09 631.286 1128.71 630.181 1130.83 629.181C1129.72 632.329 1127.71 634.434 1126.14 636.824C1124.52 639.288 1122.66 641.499 1120.1 643.594C1123.11 644.394 1125.73 643.815 1128.29 644.173C1130.84 644.531 1133.42 644.773 1136 645.257C1131.23 647.679 1126.07 648.7 1120.76 650.332C1122.79 652.69 1124.5 655.112 1125.95 657.712C1127.36 660.239 1129.85 662.008 1130.71 664.988C1128.53 663.429 1126.33 661.892 1124.16 660.313C1122.03 658.755 1120.07 656.923 1117.25 656.091C1118.36 662.377 1117.49 668.578 1117.73 675C1116.19 673.842 1111.73 665.072 1108.56 657.312C1107.58 657.902 1107.16 658.976 1106.52 659.818C1104.59 662.398 1102.68 664.977 1100.35 667.209C1099.42 668.093 1098.73 669.241 1097.88 670.22C1097.36 670.82 1097.01 671.631 1095.9 672.084Z" fill="#C16378"/>
<path d="M1022.9 672.084C1024.37 665.735 1025.48 659.555 1027.53 653.606C1027.66 653.217 1027.79 652.827 1027.91 652.427C1028.29 651.069 1028.08 650.848 1026.68 651.069C1022.76 651.68 1018.85 652.322 1014.93 652.88C1013.13 653.143 1011.31 653.091 1009 652.996C1010.97 651.417 1012.99 650.985 1014.86 650.258C1016.88 649.479 1018.88 648.658 1021.01 648.269C1023.04 647.9 1025.09 647.711 1027.34 647.405C1026.59 645.847 1025.27 645.152 1024.5 643.973C1023.71 642.773 1022.82 641.636 1022.04 640.425C1021.31 639.277 1020.67 638.046 1019.95 636.877C1019.19 635.677 1018.38 634.519 1017.68 633.224C1020.21 634.466 1022.76 635.677 1024.94 637.488C1027.15 639.309 1029.77 640.478 1032.15 642.752C1033.39 634.898 1033.98 627.254 1036.49 620C1037.21 620.179 1037.02 620.863 1037.07 621.327C1037.82 627.444 1039.63 633.35 1040.32 639.477C1040.45 640.688 1040.77 640.815 1041.73 640.13C1045.33 637.572 1048.91 635.013 1052.49 632.434C1054.09 631.286 1055.71 630.181 1057.83 629.181C1056.72 632.329 1054.71 634.434 1053.14 636.824C1051.52 639.288 1049.66 641.499 1047.1 643.594C1050.11 644.394 1052.73 643.815 1055.29 644.173C1057.84 644.531 1060.42 644.773 1063 645.257C1058.23 647.679 1053.07 648.7 1047.76 650.332C1049.79 652.69 1051.5 655.112 1052.95 657.712C1054.36 660.239 1056.85 662.008 1057.71 664.988C1055.53 663.429 1053.33 661.892 1051.16 660.313C1049.03 658.755 1047.07 656.923 1044.25 656.091C1045.36 662.377 1044.49 668.578 1044.73 675C1043.19 673.842 1038.73 665.072 1035.56 657.312C1034.58 657.902 1034.16 658.976 1033.52 659.818C1031.59 662.398 1029.68 664.977 1027.35 667.209C1026.42 668.093 1025.73 669.241 1024.88 670.22C1024.36 670.82 1024.01 671.631 1022.9 672.084Z" fill="#C16378"/>
</g>
<defs>
<clipPath id="clip0_48_936">
<rect width="1200" height="1920" fill="white"/>
</clipPath>
</defs>
</svg>
